
<svg xmlns="http://www.w3.org/2000/svg" version="1.1" xmlns:xlink="http://www.w3.org/1999/xlink" preserveAspectRatio="none" x="0px" y="0px" width="250px" height="250px" viewBox="0 0 250 250">
<defs>
<linearGradient id="Gradient_1" gradientUnits="userSpaceOnUse" x1="259.2375" y1="358.4875" x2="285.96250000000003" y2="385.21250000000003" spreadMethod="pad">
<stop  offset="0%" stop-color="#FFFFFF"/>

<stop  offset="100%" stop-color="#CCCCCC"/>
</linearGradient>

<linearGradient id="Gradient_2" gradientUnits="userSpaceOnUse" x1="260.85" y1="363.08750000000003" x2="260.85" y2="373.5125" spreadMethod="pad">
<stop  offset="0%" stop-color="#5BCD73"/>

<stop  offset="100%" stop-color="#295EF6"/>
</linearGradient>

<linearGradient id="Gradient_3" gradientUnits="userSpaceOnUse" x1="267.55" y1="363.08750000000003" x2="267.55" y2="373.5125" spreadMethod="pad">
<stop  offset="0%" stop-color="#5BCD73"/>

<stop  offset="100%" stop-color="#295EF6"/>
</linearGradient>

<linearGradient id="Gradient_4" gradientUnits="userSpaceOnUse" x1="276.1" y1="363.08750000000003" x2="276.1" y2="373.5125" spreadMethod="pad">
<stop  offset="0%" stop-color="#5BCD73"/>

<stop  offset="100%" stop-color="#295EF6"/>
</linearGradient>

<filter id="Filter_1" x="-20%" y="-20%" width="140%" height="140%" color-interpolation-filters="sRGB">
<feColorMatrix in="SourceGraphic" type="matrix" values="1 0 0 0 0 0 1 0 0 0 0 0 1 0 0 0 0 0 0.33 0" result="result1"/>
</filter>

<g id="Layer0_0_MEMBER_0_FILL">
<path fill="#FEF465" stroke="none" d="
M 329.75 185.4
Q 328.8 181.65 325.6 179.3 322.45 176.95 318.55 177 314.2 177 311.5 173.85 308 169.65 310.35 164.75 312.7 160 317.55 160
L 318.45 159.95
Q 321.05 159.95 322.95 158.1 324.85 156.25 324.75 153.7 324.6 151.2 322.8 149.6 320.95 148 318.4 148
L 205.3 148 225.8 111.95 148.4 111.95
Q 143.4 111.95 139.7 115.25 135.9 118.6 135.55 123.5 135.1 129 138.9 133.05 142.65 137 148.15 137
L 148.15 136.95
Q 151.05 136.95 153.35 138.6 155.7 140.3 156.5 143 157.75 147.1 155.2 150.55 152.7 154 148.65 154
L 146.7 153.95
Q 143.65 153.95 141.35 155.9 138.95 157.85 138.55 160.8 138.05 164.5 140.45 167.25 142.85 170 146.45 170
L 155.15 169.95
Q 158.05 169.95 160.3 171.85 162.5 173.7 162.85 176.55 163.25 179.95 161 182.5 158.75 185 155.4 185
L 153.25 184.95
Q 149.95 184.95 147.65 187.1 143.85 190.7 145.85 195.45 147.75 200 152.25 200
L 152.25 199.95
Q 240.35 204.4 240.15 209.85 240 213.7 237.2 216.35 234.4 219 230.5 219
L 224.6 218.95
Q 220.75 218.95 217.75 221.4 214.65 223.85 214 227.6 213.15 232.5 216.3 236.25 219.4 240 224.25 240
L 296.05 240
Q 302.65 240 307.45 235.5 312.3 231 312.5 224.5 312.75 217.65 307.95 212.8 303.2 208 296.35 208
L 292.75 208
Q 291.15 208 289.95 206.95 288.7 205.9 288.55 204.35 288.4 202.55 289.6 201.25 290.8 199.9 292.55 199.9
L 318.8 200
Q 324.35 200 327.75 195.55 331.25 191 329.75 185.4 Z"/>
</g>

<g id="Layer0_0_MEMBER_1_FILL">
<path fill="#295EF6" stroke="none" d="
M 233.55 105.35
Q 204.85 105.35 184.55 125.65 164.25 145.95 164.25 174.65 164.25 203.4 184.55 223.7 194.15 233.3 206.55 238.55 219.45 244 233.55 244 247.65 244 260.5 238.55 272.95 233.3 282.55 223.7 302.85 203.35 302.85 174.65 302.85 145.95 282.55 125.65 262.25 105.35 233.55 105.35 Z"/>
</g>

<g id="Layer0_0_MEMBER_2_FILL">
<path fill="#5BCD73" stroke="none" d="
M 213.05 113
Q 212.15 111.1 210.6 109.7 204.1 111.25 196.15 115.95 180.2 125.35 172.8 141.25 165.45 157.2 164.5 168.2 164 173.7 165 176
L 207.65 176
Q 214.4 176 219.2 171.3 223.95 166.55 223.95 159.8 223.95 153.05 219.2 148.35 214.4 143.65 207.65 143.65
L 199.45 143.3
Q 196.1 143.3 193.7 140.9 191.3 138.55 191.3 135.15 191.3 131.8 193.7 129.4 196.1 127 199.45 127
L 204.25 127
Q 208.3 127 211.15 124.1 214 121.15 214 117.1 214 114.95 213.05 113 Z"/>
</g>

<g id="Layer0_0_MEMBER_3_FILL">
<path fill="#5BCD73" stroke="none" d="
M 234.25 185.55
Q 229.95 185.55 226.9 188.55 223.85 191.55 223.85 195.8 223.85 200.1 226.85 203.05 229.8 206 234.1 206
L 240.5 206
Q 243.15 206 245.05 207.9 246.9 209.85 246.9 212.5 246.9 215.15 245.05 217.05 243.15 219 240.5 219
L 221.2 219
Q 217.75 219 215.3 221.55 212.85 224.05 212.85 227.5 212.85 230.95 215.3 233.45 217.75 236 221.2 236
L 264 236 266.4 235.5
Q 269.45 234.55 272.85 232.3 283.6 225.1 293.4 207.8 303.2 190.5 302.1 171.55 301.75 165.6 300.35 160.2
L 299 156 259.8 156
Q 256.75 156 254.6 158.2 252.45 160.4 252.45 163.5 252.45 166.55 254.6 168.75 256.8 171 259.8 171
L 267.15 171
Q 270.1 171 272.2 173.1 274.3 175.15 274.3 178.15 274.3 181.1 272.2 183.2 270.05 185.3 267.1 185.3
L 234.25 185.55 Z"/>
</g>

<g id="Layer0_0_MEMBER_10_MEMBER_0_FILL">
<path fill="#000000" stroke="none" d="
M 272.2 67.1
L 272.2 64.25 270.4 64.25 270.4 71.25 272.2 71.25 272.2 68.5 275.1 68.5 275.1 71.25 276.9 71.25 276.9 64.25 275.1 64.25 275.1 67.1 272.2 67.1 Z"/>
</g>

<g id="Layer0_0_MEMBER_10_MEMBER_1_FILL">
<path fill="#000000" stroke="none" d="
M 281.6 64.15
Q 280 64.15 278.9 65.2 277.85 66.2 277.85 67.7 277.85 69.25 278.9 70.25 280 71.3 281.6 71.3 283.2 71.3 284.3 70.25 285.4 69.25 285.4 67.7 285.4 66.2 284.3 65.2 283.2 64.15 281.6 64.15
M 281.6 65.65
Q 282.45 65.65 283 66.25 283.55 66.85 283.55 67.75 283.55 68.6 283 69.2 282.45 69.8 281.6 69.8 280.8 69.8 280.25 69.2 279.65 68.6 279.65 67.75 279.65 66.85 280.25 66.25 280.8 65.65 281.6 65.65 Z"/>
</g>

<g id="Layer0_0_MEMBER_10_MEMBER_2_FILL">
<path fill="#000000" stroke="none" d="
M 291.1 69.75
L 288.1 69.75 288.1 64.25 286.35 64.25 286.35 71.25 291.1 71.25 291.1 69.75 Z"/>
</g>

<g id="Layer0_0_MEMBER_10_MEMBER_3_FILL">
<path fill="#000000" stroke="none" d="
M 291.2 71.25
L 293.05 71.25 293.55 69.95 296.6 69.95 297.1 71.25 299 71.25 296.05 64.25 294.25 64.25 291.2 71.25
M 295.1 66
L 296.1 68.6 294.05 68.6 295.1 66 Z"/>
</g>

<g id="Layer0_0_MEMBER_10_MEMBER_4_FILL">
<path fill="#000000" stroke="none" d="
M 308.1 71.25
L 309.65 71.25 309.65 64.2 307.75 64.2 305.85 68.4 303.95 64.2 302 64.2 302 71.25 303.55 71.25 303.55 66.7 305.25 70.55 306.4 70.55 308.1 66.7 308.1 71.25 Z"/>
</g>

<g id="Layer0_0_MEMBER_10_MEMBER_5_FILL">
<path fill="#000000" stroke="none" d="
M 312.75 68.3
L 312.75 64.25 310.95 64.25 310.95 68.3
Q 310.95 69.7 311.85 70.5 312.7 71.3 314.2 71.3 315.65 71.3 316.55 70.5 317.4 69.7 317.4 68.3
L 317.4 64.25 315.6 64.25 315.6 68.3
Q 315.6 69.8 314.2 69.8 312.75 69.8 312.75 68.3 Z"/>
</g>

<g id="Layer0_0_MEMBER_10_MEMBER_6_FILL">
<path fill="#000000" stroke="none" d="
M 325.1 71.25
L 325.1 64.25 323.45 64.25 323.45 68.55 320.25 64.25 318.65 64.25 318.65 71.25 320.35 71.25 320.35 66.9 323.55 71.25 325.1 71.25 Z"/>
</g>

<g id="Layer0_0_MEMBER_10_MEMBER_7_FILL">
<path fill="#000000" stroke="none" d="
M 332.25 65.2
Q 331.2 64.25 329.55 64.25
L 326.5 64.25 326.5 71.25 329.45 71.25
Q 331.15 71.25 332.2 70.25 333.25 69.3 333.25 67.75 333.25 66.2 332.25 65.2
M 330.9 66.25
Q 331.45 66.85 331.45 67.75 331.45 68.65 330.9 69.25 330.4 69.8 329.55 69.8
L 328.3 69.8 328.3 65.65 329.5 65.65
Q 330.35 65.65 330.9 66.25 Z"/>
</g>

<g id="Layer0_0_MEMBER_10_MEMBER_8_FILL">
<path fill="#000000" stroke="none" d="
M 341.15 67.7
Q 341.15 66.2 340.1 65.2 339 64.15 337.4 64.15 335.75 64.15 334.7 65.2 333.6 66.2 333.6 67.7 333.6 69.25 334.7 70.25 335.75 71.3 337.4 71.3 339 71.3 340.1 70.25 341.15 69.25 341.15 67.7
M 335.4 67.75
Q 335.4 66.85 336 66.25 336.55 65.65 337.4 65.65 338.25 65.65 338.8 66.25 339.35 66.85 339.35 67.75 339.35 68.6 338.8 69.2 338.25 69.8 337.4 69.8 336.6 69.8 336 69.2 335.4 68.6 335.4 67.75 Z"/>
</g>

<g id="Layer0_1_MEMBER_1_FILL">
<path fill="#FFFFFF" stroke="none" d="
M 360.15 109.95
Q 356.15 109.95 353.3 112.8 350.5 115.65 350.5 119.65
L 350.5 202.6
Q 350.5 206.6 353.3 209.45 356.15 212.3 360.15 212.3
L 475.8 212.3
Q 479.8 212.3 482.65 209.45 485.5 206.6 485.5 202.6
L 485.5 119.65
Q 485.5 115.65 482.65 112.8 479.8 109.95 475.8 109.95
L 360.15 109.95 Z"/>
</g>

<g id="Layer0_1_MEMBER_2_FILL">
<path fill="#FEF465" stroke="none" d="
M 360.15 109.95
Q 356.15 109.95 353.3 112.8 350.5 115.65 350.5 119.65
L 350.5 193.5 485.5 193.5 485.5 119.65
Q 485.5 115.65 482.65 112.8 479.8 109.95 475.8 109.95
L 360.15 109.95 Z"/>
</g>

<g id="Layer0_1_MEMBER_3_FILL">
<path fill="#FFFFFF" stroke="none" d="
M 364.3 120
L 364.3 193.5 471.65 193.5 471.65 120 364.3 120 Z"/>
</g>

<g id="Layer0_1_MEMBER_12_FILL">
<path fill="#272B33" stroke="none" d="
M 365 133.5
L 365 141.5 471 141.5 471 133.5 365 133.5 Z"/>
</g>

<g id="Layer0_1_MEMBER_14_FILL">
<path fill="#5BCD73" stroke="none" d="
M 364.65 141.5
L 364.65 176 471.3 176 471.3 141.5 364.65 141.5 Z"/>
</g>

<g id="Layer0_1_MEMBER_15_FILL">
<path fill="#5BCD73" stroke="none" d="
M 401.25 151.7
Q 398.15 151.7 395.95 153.9 393.75 156.1 393.75 159.2 393.75 162.3 395.95 164.5 398.15 166.7 401.25 166.7 404.35 166.7 406.55 164.5 408.75 162.3 408.75 159.2 408.75 156.1 406.55 153.9 404.35 151.7 401.25 151.7 Z"/>
</g>

<g id="Layer0_1_MEMBER_19_FILL">
<path fill="#295EF6" stroke="none" d="
M 397 185.1
Q 397 184.25 396.35 183.6 395.7 183 394.85 183
L 387.5 183
Q 386.65 183 386 183.6 385.4 184.25 385.4 185.1 385.4 185.95 386 186.6 386.65 187.25 387.5 187.25
L 394.85 187.25
Q 395.7 187.25 396.35 186.6 397 185.95 397 185.1 Z"/>
</g>

<g id="Layer0_1_MEMBER_20_FILL">
<path fill="#295EF6" stroke="none" d="
M 424.25 185.1
Q 424.25 184.25 423.65 183.6 423 183 422.15 183
L 414.8 183
Q 413.95 183 413.3 183.6 412.7 184.25 412.7 185.1 412.7 185.95 413.3 186.6 413.95 187.25 414.8 187.25
L 422.15 187.25
Q 423 187.25 423.65 186.6 424.25 185.95 424.25 185.1 Z"/>
</g>

<g id="Layer0_1_MEMBER_21_FILL">
<path fill="#295EF6" stroke="none" d="
M 443.6 183
Q 442.75 183 442.1 183.6 441.5 184.25 441.5 185.1 441.5 185.95 442.1 186.6 442.75 187.25 443.6 187.25
L 450.95 187.25
Q 451.8 187.25 452.45 186.6 453.05 185.95 453.05 185.1 453.05 184.25 452.45 183.6 451.8 183 450.95 183
L 443.6 183 Z"/>
</g>

<g id="iconos_otros_ai_Layer_1__Path__2_0_Layer0_0_FILL">
<path fill="#FFFFFF" stroke="none" d="
M 9.65 0
Q 5.65 0 2.8 2.85 0 5.7 0 9.7
L 0 83.55 114.5 83.55 9.65 0 Z"/>
</g>

<g id="Layer0_2_MEMBER_0_MEMBER_0_FILL">
<path fill="#295EF6" stroke="none" d="
M 419.75 363.5
L 423.6 372.5 447.65 372.5 430.8 336.2 419.75 363.5 Z"/>
</g>

<g id="Layer0_2_MEMBER_1_MEMBER_0_FILL">
<path fill="#295EF6" stroke="none" d="
M 414.95 372.5
L 418.8 363.5 407.75 336.2 390.9 372.5 414.95 372.5 Z"/>
</g>

<g id="Layer0_2_MEMBER_2_FILL">
<path fill="#5BCD73" stroke="none" d="
M 418.65 250.5
Q 416 252.25 412.6 256 405.9 263.55 402.4 273.75 391.2 306.4 416.65 353.4
L 422.55 353.4
Q 448 306.4 435.85 273.75 432.05 263.55 425 256
L 418.65 250.5 Z"/>
</g>

<g id="Layer0_2_MEMBER_3_FILL">
<path fill="#FFFFFF" stroke="none" d="
M 413.7 364
L 411.25 367.85
Q 409.1 372.6 410.7 376.8
L 411.85 375.8 413.25 379.55
Q 415.25 383.75 418.1 385.7
L 420.35 384.2
Q 422.85 382.4 423.95 380.85
L 426.55 383.35
Q 428.3 381.25 429.1 377.8 430.65 370.9 425.95 364
L 413.7 364 Z"/>
</g>

<g id="Layer0_2_MEMBER_4_FILL">
<path fill="#5BCD73" stroke="none" d="
M 427.65 362.95
L 425.65 353.4 413.95 353.4 411.95 362.95 427.65 362.95 Z"/>
</g>

<g id="Layer0_2_MEMBER_5_MEMBER_0_FILL">
<path fill="#FEF465" stroke="none" d="
M 413.7 363.35
L 411.25 367.4
Q 409.1 372.3 410.7 376.5
L 411.85 375.65 413.25 379.45
Q 415.25 383.7 418.1 385.65
L 420.35 384.15
Q 422.85 382.35 423.95 380.8
L 426.55 383
Q 428.3 381.1 429.1 377.65 430.65 370.8 425.95 363.35
L 413.7 363.35 Z"/>
</g>

<g id="Layer0_2_MEMBER_6_FILL">
<path fill="#FEF465" stroke="none" d="
M 427.85 296.55
Q 427.85 292.85 425.25 290.25 422.6 287.65 418.9 287.65 415.2 287.65 412.6 290.25 410 292.85 410 296.55 410 300.25 412.6 302.9 415.2 305.5 418.9 305.5 422.6 305.5 425.25 302.9 427.85 300.25 427.85 296.55 Z"/>
</g>

<g id="Layer0_2_MEMBER_7_FILL">
<path fill="#FEF465" stroke="none" d="
M 422.75 275.55
Q 422.75 274 421.6 272.85 420.5 271.75 418.9 271.75 417.35 271.75 416.2 272.85 415.1 274 415.1 275.55 415.1 277.15 416.2 278.3 417.3 279.4 418.9 279.4 420.5 279.4 421.6 278.3 422.75 277.15 422.75 275.55 Z"/>
</g>

<g id="Layer0_2_MEMBER_10_FILL">
<path fill="#FEF465" stroke="none" d="
M 414.85 319.05
L 414.85 321.15
Q 414.85 323.2 416.3 324.6 417.75 326.05 419.75 326.05 421.75 326.05 423.2 324.6 424.6 323.2 424.6 321.15
L 424.6 319.05
Q 424.6 317 423.2 315.6 421.75 314.15 419.75 314.15 417.75 314.15 416.3 315.6 414.85 317.05 414.85 319.05 Z"/>
</g>

<g id="Layer0_2_MEMBER_11_FILL">
<path fill="#272B33" stroke="none" d="
M 418.65 250.5
Q 411.6 257.4 410 259.5
L 428 259.5
Q 421.8 252.25 418.65 250.5 Z"/>
</g>

<g id="Layer0_2_MEMBER_12_MEMBER_0_FILL">
<path fill="#5BCD73" stroke="none" d="
M 381.2 384.3
Q 381.2 387.6 382.75 389.4 384.25 391.15 387.15 391.15 390.05 391.15 391.55 389.4 393.1 387.6 393.1 384.3 393.1 381 391.55 379.25 390.05 377.45 387.15 377.45 384.25 377.45 382.75 379.25 381.2 381 381.2 384.3
M 385.3 380.95
Q 385.85 379.95 387.15 379.95 388.45 379.95 389 380.95 389.6 382 389.6 384.3 389.6 386.6 389 387.6 388.45 388.65 387.15 388.65 385.85 388.65 385.3 387.6 384.7 386.6 384.7 384.3 384.7 382 385.3 380.95 Z"/>
</g>

<g id="Layer0_2_MEMBER_13_MEMBER_0_FILL">
<path fill="#5BCD73" stroke="none" d="
M 372.25 408.6
Q 370.7 410.4 370.7 413.65 370.7 416.95 372.25 418.75 373.8 420.5 376.7 420.5 379.55 420.5 381.1 418.75 382.65 416.95 382.65 413.65 382.65 410.4 381.1 408.6 379.55 406.85 376.7 406.85 373.8 406.85 372.25 408.6
M 378.55 410.35
Q 379.15 411.4 379.15 413.65 379.15 415.95 378.55 417 378 418 376.7 418 375.4 418 374.8 417 374.25 416 374.25 413.65 374.25 411.35 374.8 410.35 375.4 409.35 376.7 409.35 378 409.35 378.55 410.35 Z"/>
</g>

<g id="Layer0_2_MEMBER_14_MEMBER_0_FILL">
<path fill="#5BCD73" stroke="none" d="
M 415.15 418.75
Q 416.65 420.5 419.55 420.5 422.4 420.5 423.95 418.75 425.5 416.95 425.5 413.65 425.5 410.4 423.95 408.6 422.4 406.85 419.55 406.85 416.65 406.85 415.15 408.6 413.6 410.4 413.6 413.65 413.6 416.95 415.15 418.75
M 421.4 410.35
Q 422 411.4 422 413.65 422 415.95 421.4 417 420.85 418 419.55 418 418.25 418 417.7 417 417.1 415.95 417.1 413.65 417.1 411.4 417.7 410.35 418.25 409.35 419.55 409.35 420.85 409.35 421.4 410.35 Z"/>
</g>

<g id="Layer0_2_MEMBER_15_MEMBER_0_FILL">
<path fill="#5BCD73" stroke="none" d="
M 455.25 379.7
Q 452.35 379.7 450.8 381.5 449.25 383.25 449.25 386.55 449.25 389.85 450.8 391.65 452.35 393.4 455.25 393.4 458.1 393.4 459.65 391.65 461.15 389.85 461.15 386.55 461.15 383.25 459.65 381.5 458.1 379.7 455.25 379.7
M 453.35 383.2
Q 453.95 382.2 455.25 382.2 456.5 382.2 457.05 383.2 457.65 384.25 457.65 386.55 457.65 390.9 455.25 390.9 453.95 390.9 453.35 389.85 452.75 388.85 452.75 386.55 452.75 384.25 453.35 383.2 Z"/>
</g>

<g id="Layer0_2_MEMBER_16_MEMBER_0_FILL">
<path fill="#5BCD73" stroke="none" d="
M 485.6 394.2
Q 484.05 392.45 481.2 392.45 478.3 392.45 476.75 394.2 475.2 396 475.2 399.25 475.2 402.55 476.75 404.35 478.3 406.1 481.2 406.1 484.05 406.1 485.6 404.35 487.1 402.55 487.1 399.25 487.1 396 485.6 394.2
M 479.3 395.95
Q 479.9 394.95 481.2 394.95 482.5 394.95 483.05 395.95 483.65 397 483.65 399.25 483.65 401.55 483.05 402.6 482.5 403.6 481.2 403.6 479.9 403.6 479.3 402.6 478.7 401.55 478.7 399.25 478.7 396.95 479.3 395.95 Z"/>
</g>

<g id="Layer0_2_MEMBER_17_MEMBER_0_FILL">
<path fill="#295EF6" stroke="none" d="
M 399.5 412.2
L 402.9 412.2 402.9 398.7 397 398.7 397 401.45 399.5 401.45 399.5 412.2 Z"/>
</g>

<g id="Layer0_2_MEMBER_18_MEMBER_0_FILL">
<path fill="#295EF6" stroke="none" d="
M 361.35 385.5
L 355.45 385.5 355.45 388.25 357.9 388.25 357.9 398.95 361.35 398.95 361.35 385.5 Z"/>
</g>

<g id="Layer0_2_MEMBER_19_MEMBER_0_FILL">
<path fill="#295EF6" stroke="none" d="
M 436.2 389.4
L 430.3 389.4 430.3 392.15 432.8 392.15 432.8 402.85 436.2 402.85 436.2 389.4 Z"/>
</g>

<g id="Layer0_2_MEMBER_20_MEMBER_0_FILL">
<path fill="#295EF6" stroke="none" d="
M 457.75 420.4
L 461.15 420.4 461.15 406.95 455.25 406.95 455.25 409.7 457.75 409.7 457.75 420.4 Z"/>
</g>

<g id="iconos_otros_ai_Layer_1__Path__2_0_0_Layer0_0_FILL">
<path fill="#FFFFFF" stroke="none" d="
M 19.7 0.05
Q 17.05 1.75 13.75 5.5 7.1 13.05 3.7 23.2 -7.25 55.75 18.2 102.75
L 16.3 104.35 15.3 113 19.7 113 19.7 0.05 Z"/>
</g>

<g id="Layer0_3_MEMBER_0_FILL">
<path fill="#272B33" stroke="none" d="
M 265.8 296.7
Q 263.4 294.3 260 294.3
L 172.55 294.3
Q 169.15 294.3 166.7 296.7 164.3 299.15 164.3 302.55
L 164.3 364.4
Q 164.3 367.8 166.7 370.25 169.15 372.65 172.55 372.65
L 260 372.65
Q 263.4 372.65 265.8 370.25 268.2 367.8 268.2 364.4
L 268.2 302.55
Q 268.2 299.15 265.8 296.7 Z"/>
</g>

<g id="Layer0_3_MEMBER_1_FILL">
<path fill="#295EF6" stroke="none" d="
M 175.6 301.3
Q 174.5 301.3 173.75 302.1 173 302.85 173 303.95
L 173 362.35
Q 173 363.45 173.75 364.2 174.5 365 175.6 365
L 257.1 365
Q 258.2 365 258.95 364.2 259.75 363.45 259.75 362.35
L 259.75 303.95
Q 259.75 302.85 258.95 302.1 258.2 301.3 257.1 301.3
L 175.6 301.3 Z"/>
</g>

<g id="Layer0_3_MEMBER_4_FILL">
<path fill="#FFFFFF" stroke="none" d="
M 170 311.9
Q 170 311.35 169.6 310.95 169.2 310.55 168.65 310.55 168.1 310.55 167.7 310.95 167.3 311.35 167.3 311.9 167.3 312.45 167.7 312.85 168.1 313.25 168.65 313.25 169.2 313.25 169.6 312.85 170 312.45 170 311.9 Z"/>
</g>

<g id="Mask_iconos_otros_ai_Layer_1__Clip_Group__0_2_MASK_0_FILL">
<path fill="#FFFFFF" stroke="none" d="
M 86.75 2.65
Q 86.75 1.55 85.95 0.8 85.2 0 84.1 0
L 2.6 0
Q 1.5 0 0.75 0.8 0 1.55 0 2.65
L 0 61.05
Q 0 62.15 0.75 62.9 1.5 63.7 2.6 63.7
L 84.1 63.7
Q 85.2 63.7 85.95 62.9 86.75 62.15 86.75 61.05
L 86.75 2.65 Z"/>
</g>

<g id="iconos_otros_ai_Layer_1__Clip_Group__0_Layer2_0_MEMBER_0_FILL">
<path fill="#5BCD73" stroke="none" d="
M 55.3 14.7
Q 50.1 9.4 43.05 9.4 36 9.4 30.85 14.7 25.8 19.85 25.8 26.7
L 60.35 26.7
Q 60.35 19.85 55.3 14.7 Z"/>
</g>

<g id="iconos_otros_ai_Layer_1__Clip_Group__0_Layer2_0_MEMBER_1_FILL">
<path fill="#5BCD73" stroke="none" d="
M 25.8 51.9
Q 25.8 53.9 27.2 55.3 28.6 56.7 30.6 56.7
L 55.55 56.7
Q 57.55 56.7 58.95 55.3 60.35 53.9 60.35 51.9
L 60.35 28.4 25.8 28.4 25.8 51.9 Z"/>
</g>

<g id="iconos_otros_ai_Layer_1__Clip_Group__0_Layer2_0_MEMBER_2_FILL">
<path fill="#5BCD73" stroke="none" d="
M 36.9 69.4
Q 38.5 69.4 39.6 68.3 40.7 67.15 40.7 65.55
L 40.7 57.15
Q 40.7 55.55 39.6 54.4 38.5 53.3 36.9 53.3 35.3 53.3 34.15 54.4 33.05 55.55 33.05 57.15
L 33.05 65.55
Q 33.05 67.15 34.15 68.3 35.3 69.4 36.9 69.4 Z"/>
</g>

<g id="iconos_otros_ai_Layer_1__Clip_Group__0_Layer2_0_MEMBER_3_FILL">
<path fill="#5BCD73" stroke="none" d="
M 53.55 57.15
Q 53.55 55.55 52.4 54.4 51.3 53.3 49.7 53.3 48.1 53.3 46.95 54.4 45.85 55.55 45.85 57.15
L 45.85 65.55
Q 45.85 67.15 46.95 68.3 48.1 69.4 49.7 69.4 51.3 69.4 52.4 68.3 53.55 67.15 53.55 65.55
L 53.55 57.15 Z"/>
</g>

<g id="iconos_otros_ai_Layer_1__Clip_Group__0_Layer2_0_MEMBER_4_FILL">
<path fill="#5BCD73" stroke="none" d="
M 69.45 47.45
L 69.45 32.25
Q 69.45 30.65 68.35 29.5 67.25 28.4 65.65 28.4 64.05 28.4 62.9 29.5 61.8 30.65 61.8 32.25
L 61.8 47.45
Q 61.8 49.05 62.9 50.2 64.05 51.3 65.65 51.3 67.25 51.3 68.35 50.2 69.45 49.05 69.45 47.45 Z"/>
</g>

<g id="iconos_otros_ai_Layer_1__Clip_Group__0_Layer2_0_MEMBER_5_FILL">
<path fill="#5BCD73" stroke="none" d="
M 24.5 47.45
L 24.5 32.25
Q 24.5 30.65 23.35 29.5 22.25 28.4 20.65 28.4 19.05 28.4 17.95 29.5 16.8 30.65 16.8 32.25
L 16.8 47.45
Q 16.8 49.05 17.95 50.2 19.05 51.3 20.65 51.3 22.25 51.3 23.35 50.2 24.5 49.05 24.5 47.45 Z"/>
</g>

<g id="iconos_otros_ai_Layer_1__Clip_Group__0_Layer2_0_MEMBER_8_FILL">
<path fill="#295EF6" stroke="none" d="
M 49.65 17.95
Q 49.1 18.5 49.1 19.2 49.1 19.95 49.65 20.5 50.15 21 50.9 21 51.65 21 52.2 20.5 52.7 19.95 52.7 19.2 52.7 18.5 52.2 17.95 51.65 17.45 50.9 17.45 50.15 17.45 49.65 17.95 Z"/>
</g>

<g id="iconos_otros_ai_Layer_1__Clip_Group__0_Layer2_0_MEMBER_9_FILL">
<path fill="#295EF6" stroke="none" d="
M 34.3 17.95
Q 33.75 18.5 33.75 19.2 33.75 19.95 34.3 20.5 34.8 21 35.55 21 36.25 21 36.8 20.5 37.3 19.95 37.3 19.2 37.3 18.5 36.8 17.95 36.25 17.45 35.55 17.45 34.8 17.45 34.3 17.95 Z"/>
</g>

<g id="iconos_otros_ai_Layer_1__Path__9_0_Layer0_0_FILL">
<path fill="#FFFFFF" stroke="none" d="
M 0 62.45
L 53 0 0 0 0 62.45 Z"/>
</g>

<g id="Layer0_3_MEMBER_8_FILL">
<path fill="#FFFFFF" stroke="none" d="
M 290 341.7
Q 290 340 288.75 338.75 287.55 337.55 285.8 337.55
L 253.25 337.55
Q 251.55 337.55 250.3 338.75 249.1 340 249.1 341.7
L 249.1 399.6
Q 249.1 401.35 250.3 402.55 251.55 403.75 253.25 403.75
L 285.8 403.75
Q 287.55 403.75 288.75 402.55 289.95 401.35 289.95 399.6
L 290 341.7 Z"/>
</g>

<g id="Layer0_3_MEMBER_9_FILL">
<path fill="#5BCD73" stroke="none" d="
M 289.2 346
Q 288.45 345.2 287.35 345.2
L 251.75 345.2
Q 250.65 345.2 249.9 346 249.1 346.75 249.1 347.85
L 249.1 392.5
Q 249.1 393.6 249.9 394.35 250.65 395.15 251.75 395.15
L 287.35 395.15
Q 288.45 395.15 289.2 394.35 290 393.6 290 392.5
L 290 347.85
Q 290 346.75 289.2 346 Z"/>
</g>

<g id="iconos_otros_ai_Layer_1__Path__5_0_Layer0_0_FILL">
<path fill="#FFFFFF" stroke="none" d="
M 0 49.95
L 40.9 0 0 0 0 49.95 Z"/>
</g>

<g id="Layer0_3_MEMBER_12_FILL">
<path fill="#FFFFFF" stroke="none" d="
M 280.8 341.5
Q 281.5 341.5 281.5 340.8 281.5 340.1 280.8 340.1 280.1 340.1 280.1 340.8 280.1 341.5 280.8 341.5 Z"/>
</g>

<g id="Layer0_3_MEMBER_13_FILL">
<path fill="#272B33" stroke="none" d="
M 272.6 399.4
Q 272.6 398.15 271.7 397.25 270.8 396.35 269.55 396.35 268.3 396.35 267.4 397.25 266.5 398.15 266.5 399.4 266.5 400.7 267.4 401.6 268.3 402.5 269.55 402.5 270.8 402.5 271.7 401.6 272.6 400.65 272.6 399.4 Z"/>
</g>

<g id="Layer0_3_MEMBER_14_FILL">
<path fill="url(#Gradient_1)" stroke="none" d="
M 279.9 357.8
Q 278 355.85 275.25 355.85
L 263.2 355.85
Q 260.45 355.85 258.55 357.8 256.6 359.7 256.6 362.45
L 256.6 374.5
Q 256.6 377.25 258.55 379.15 260.45 381.1 263.2 381.1
L 275.25 381.1
Q 278 381.1 279.9 379.15 281.85 377.25 281.85 374.5
L 281.85 362.45
Q 281.85 359.7 279.9 357.8 Z"/>
</g>

<g id="Layer0_3_MEMBER_15_MEMBER_0_FILL">
<path fill="url(#Gradient_2)" stroke="none" d="
M 261.5 366.35
L 260.25 366.35 260.25 373.35 261.5 373.35 261.5 366.35
M 260.25 364.8
Q 260.45 365.05 260.85 365.05 261.25 365.05 261.45 364.8 261.7 364.55 261.7 364.25 261.7 364 261.45 363.65 261.3 363.45 260.9 363.45 260.5 363.45 260.3 363.65 260.05 364 260.05 364.25 260.05 364.5 260.25 364.8 Z"/>
</g>

<g id="Layer0_3_MEMBER_15_MEMBER_1_FILL">
<path fill="url(#Gradient_3)" stroke="none" d="
M 270.8 364.85
Q 270.2 364.15 269.4 363.8 268.65 363.45 267.6 363.45 266.55 363.45 265.8 363.8 264.95 364.2 264.35 364.85 263.75 365.5 263.45 366.45 263.1 367.35 263.1 368.55 263.1 369.7 263.4 370.6 263.7 371.45 264.3 372.15 264.85 372.75 265.7 373.15 266.45 373.5 267.45 373.5
L 267.5 373.5
Q 268.45 373.5 269.25 373.2 270.1 372.8 270.65 372.2 271.3 371.6 271.65 370.6 272 369.7 272 368.4 272 367.3 271.7 366.4 271.4 365.45 270.8 364.85
M 266.2 364.8
Q 266.8 364.5 267.55 364.5 268.4 364.5 268.9 364.8 269.55 365.2 269.9 365.75 270.25 366.25 270.5 367 270.65 367.75 270.65 368.45 270.65 369.35 270.45 370 270.25 370.65 269.85 371.3 269.45 371.85 268.85 372.15 268.35 372.5 267.55 372.5 266.75 372.5 266.2 372.15 265.6 371.8 265.25 371.3 264.8 370.7 264.65 370 264.4 369.25 264.4 368.55 264.4 368 264.6 367 264.85 366.25 265.2 365.7 265.55 365.2 266.2 364.8 Z"/>
</g>

<g id="Layer0_3_MEMBER_15_MEMBER_2_FILL">
<path fill="url(#Gradient_4)" stroke="none" d="
M 275.05 365
Q 275.25 364.8 275.6 364.65 276 364.5 276.45 364.5
L 277.6 364.65 278.3 364.95 278.65 363.95
Q 278.3 363.75 277.75 363.6 277.25 363.45 276.5 363.45 275.75 363.45 275.2 363.65 274.5 363.9 274.2 364.2 273.8 364.5 273.55 365.05 273.35 365.45 273.35 366.1 273.35 367.15 274.05 367.8 274.85 368.55 275.9 368.85 276.9 369.25 277.3 369.7 277.75 370.15 277.75 370.8 277.75 371.55 277.2 372 276.7 372.45 275.7 372.45 275.05 372.45 274.45 372.3
L 273.45 371.8 273.15 372.9 274.2 373.35 275.6 373.5
Q 276.55 373.5 277.15 373.3 277.65 373.1 278.2 372.65 278.6 372.3 278.8 371.75 279 371.35 279 370.7 279 370.15 278.85 369.75 278.7 369.35 278.4 368.95
L 277.65 368.35 276.55 367.85
Q 275.8 367.6 275.05 367.05 274.6 366.7 274.6 365.95
L 274.7 365.45 275.05 365 Z"/>
</g>

<path id="Layer0_0_MEMBER_0_1_STROKES" stroke="#FEF465" stroke-width="1" stroke-linejoin="miter" stroke-linecap="butt" stroke-miterlimit="10" fill="none" d="
M 47.7105712890625 88.91949768066407
Q 43.39080810546875 88.91949768066407 40.19418334960936 91.77054138183594 36.911163330078125 94.66478271484375 36.60877990722658 98.89815063476563 36.220001220703125 103.64989013671875 39.503021240234375 107.1488983154297 42.74284362792969 110.56151123046875 47.49458312988281 110.56151123046875
L 47.49458312988281 110.5183135986328
Q 50.00004577636719 110.5183135986328 51.98713684082031 111.94383544921875 54.017425537109375 113.41255493164064 54.708587646484375 115.74522705078125 55.78852844238281 119.28743286132813 53.58544921875 122.26806945800782 51.425567626953125 125.2487060546875 47.92655944824219 125.2487060546875
L 46.24185180664061 125.20550842285157
Q 43.60679626464844 125.20550842285157 41.61970520019531 126.89021606445313 39.5462188720703 128.57492370605468 39.20063781738283 131.123583984375 38.76866149902345 134.32020874023436 40.84214782714842 136.69607849121093 42.91563415527344 139.0719482421875 46.02586364746092 139.0719482421875
L 53.54225158691406 139.02875061035155
Q 56.04771423339844 139.02875061035155 57.991607666015625 140.67026062011718 59.892303466796875 142.26857299804686 60.19468688964844 144.7308380126953 60.54026794433594 147.66827697753905 58.59637451171875 149.87135620117186 56.65248107910156 152.03123779296874 53.75823974609375 152.03123779296874
L 51.90074157714844 151.9880401611328
Q 49.04969787597656 151.9880401611328 47.06260681152344 153.8455383300781 43.77958679199219 156.9557678222656 45.50749206542969 161.05954284667968 47.14900207519531 164.99052734375 51.03678894042969 164.99052734375
L 51.03678894042969 164.94732971191405
Q 127.15101623535156 168.7919189453125 126.97822570800781 173.50046081542968 126.8486328125 176.82667846679686 124.4295654296875 179.11615295410155 122.010498046875 181.40562744140624 118.64108276367188 181.40562744140624
L 113.54376220703125 181.3624298095703
Q 110.21754455566406 181.3624298095703 107.62568664550781 183.47911376953124 104.94743347167969 185.59579772949218 104.3858642578125 188.8356201171875 103.65150451660156 193.06898803710936 106.37295532226562 196.30881042480468 109.05120849609375 199.5486328125 113.24137878417969 199.5486328125
L 175.27317810058594 199.5486328125
Q 180.9752655029297 199.5486328125 185.1222381591797 195.6608459472656 189.31240844726562 191.77305908203124 189.48519897460938 186.15736694335936 189.70118713378906 180.23929138183593 185.55421447753906 176.04912109375 181.450439453125 171.9021484375 175.53236389160156 171.9021484375
L 172.42213439941406 171.9021484375
Q 171.03981018066403 171.9021484375 170.00306701660156 170.9949981689453 168.92312622070312 170.0878479003906 168.7935333251953 168.74872131347655 168.66394042968747 167.1936065673828 169.70068359375003 166.07046813964843 170.7374267578125 164.9041320800781 172.2493438720703 164.9041320800781
L 194.9281005859375 164.99052734375
Q 199.72303771972656 164.99052734375 202.6604766845703 161.14593811035155 205.68431091308594 157.21495361328124 204.3883819580078 152.37681884765624 203.567626953125 149.13699645996093 200.802978515625 147.10670776367186 198.08152770996094 145.0764190673828 194.7121124267578 145.11961669921874 190.95391845703125 145.11961669921874 188.62124633789062 142.39816589355468 185.597412109375 138.76956481933593 187.62770080566406 134.53619689941405 189.65798950195312 130.432421875 193.84815979003906 130.432421875
L 194.62571716308594 130.38922424316405
Q 196.8719940185547 130.38922424316405 198.5135040283203 128.79091186523436 200.15501403808594 127.19259948730469 200.06861877441406 124.98952026367188 199.93902587890625 122.829638671875 198.3839111328125 121.447314453125 196.7855987548828 120.064990234375 194.58251953125 120.064990234375
L 96.86947631835938 120.064990234375 114.58050537109375 88.91949768066407 47.7105712890625 88.91949768066407 Z"/>

<path id="Layer0_0_MEMBER_4_1_STROKES" stroke="#272B33" stroke-width="3" stroke-linejoin="round" stroke-linecap="round" fill="none" d="
M 180.2841033935547 143.08932800292968
Q 180.2841033935547 167.8847686767578 162.74586486816406 185.46620483398436 145.20762634277344 203.004443359375 120.41218566894531 203.004443359375 108.23045349121094 203.004443359375 97.08546447753906 198.2959014892578 86.37245178222656 193.76015014648436 78.07850646972656 185.46620483398436 60.54026794433594 167.92796630859374 60.54026794433594 143.08932800292968 60.54026794433594 118.29388732910155 78.07850646972656 100.75564880371094 95.61674499511719 83.21741027832032 120.41218566894531 83.21741027832032 145.20762634277344 83.21741027832032 162.74586486816406 100.75564880371094 180.2841033935547 118.29388732910155 180.2841033935547 143.08932800292968 Z"/>

<path id="Layer0_0_MEMBER_5_1_STROKES" stroke="#272B33" stroke-width="3" stroke-linejoin="round" stroke-linecap="round" fill="none" d="
M 133.37147521972656 94.27600402832032
Q 140.49908447265625 96.17669982910157 146.80593872070315 100.06448669433594 153.02639770507812 103.90907592773439 157.90773010253906 109.30877990722658"/>

<path id="Layer0_0_MEMBER_6_1_STROKES" stroke="#272B33" stroke-width="3" stroke-linejoin="round" stroke-linecap="round" fill="none" d="
M 72.41961669921875 158.8996612548828
L 71.64205932617188 156.2646057128906"/>

<path id="Layer0_0_MEMBER_7_1_STROKES" stroke="#272B33" stroke-width="3" stroke-linejoin="round" stroke-linecap="round" fill="none" d="
M 94.83918762207031 186.6757385253906
Q 88.27314758300781 182.78795166015624 83.13262939453125 177.12906188964843 77.90571594238281 171.4701721191406 74.6658935546875 164.5585510253906"/>

<path id="Layer0_0_MEMBER_8_1_STROKES" stroke="#272B33" stroke-width="3" stroke-linejoin="round" stroke-linecap="round" fill="none" d="
M 101.44842529296875 87.19159240722657
Q 102.78755187988281 88.40112609863282 103.56510925292969 90.08583374023438 104.3858642578125 91.81373901367188 104.3858642578125 93.71443481445313 104.3858642578125 97.256640625 101.92359924316406 99.80530090332032 99.46133422851562 102.35396118164063 95.96232604980469 102.35396118164063
L 91.81535339355469 102.35396118164063
Q 88.87791442871094 102.35396118164063 86.84762573242188 104.29785461425782 84.77413940429688 106.28494567871095 84.77413940429688 109.17918701171875 84.77413940429688 112.07342834472657 86.84762573242188 114.10371704101563 88.87791442871094 116.13400573730468 91.81535339355469 116.13400573730468
L 98.89976501464844 116.34999389648436
Q 104.7314453125 116.34999389648436 108.87841796875 120.49696655273438 112.98219299316406 124.64393920898438 112.98219299316406 130.51881713867186 112.98219299316406 136.35049743652343 108.87841796875 140.54066772460936 104.7314453125 144.68764038085936 98.89976501464844 144.68764038085936
L 62.05218505859375 144.68764038085936"/>

<path id="Layer0_0_MEMBER_9_1_STROKES" stroke="#272B33" stroke-width="3" stroke-linejoin="round" stroke-linecap="round" fill="none" d="
M 177.82183837890625 127.40858764648438
L 143.95489501953125 127.40858764648438
Q 141.31983947753906 127.40858764648438 139.46234130859375 129.3092834472656 137.60484313964844 131.20997924804686 137.60484313964844 133.888232421875 137.60484313964844 136.52328796386718 139.46234130859375 138.42398376464843 141.363037109375 140.3678771972656 143.95489501953125 140.3678771972656
L 150.30494689941403 140.3678771972656
Q 152.89680480957028 140.3678771972656 154.66790771484375 142.05258483886718 156.48220825195312 143.78049011230468 156.48220825195312 146.329150390625 156.48220825195312 148.8778106689453 154.66790771484375 150.64891357421874 152.8536071777344 152.37681884765624 150.26174926757815 152.37681884765624
L 121.88090515136719 152.59280700683593
Q 118.2091064453125 152.59280700683593 115.53085327148438 155.27106018066405 112.89579772949219 157.90611572265624 112.89579772949219 161.62111206054686 112.89579772949219 165.3361083984375 115.48765563964844 167.97116394042968 118.07951354980469 170.60621948242186 121.75131225585938 170.60621948242186
L 127.28060913085938 170.60621948242186
Q 129.57008361816406 170.60621948242186 131.2115936279297 172.2477294921875 132.80990600585938 173.8892395019531 132.80990600585938 176.1787139892578 132.80990600585938 178.51138610839843 131.2115936279297 180.15289611816405 129.57008361816406 181.8376037597656 127.28060913085938 181.8376037597656
L 110.6063232421875 181.8376037597656
Q 107.62568664550781 181.8376037597656 105.50900268554688 184.04068298339843 103.39231872558594 186.2005645751953 103.39231872558594 189.181201171875 103.39231872558594 192.16183776855468 105.50900268554688 194.32171936035155 107.62568664550781 196.52479858398436 110.6063232421875 196.52479858398436
L 147.58349609375 196.52479858398436"/>

<path id="Layer0_0_MEMBER_11_1_STROKES" stroke="#272B33" stroke-width="3" stroke-linejoin="round" stroke-linecap="round" fill="none" d="
M 215.1877899169922 64.59923095703125
L 159.50604248046875 64.59923095703125 144.6028594970703 75.139453125 144.6028594970703 43.34599609375
Q 144.6028594970703 40.58134765625 146.5467529296875 38.59425659179688 148.4906463623047 36.65036315917969 151.2552947998047 36.65036315917969
L 215.1877899169922 36.65036315917969
Q 217.9524383544922 36.65036315917969 219.89633178710938 38.59425659179688 221.8834228515625 40.58134765625 221.8834228515625 43.34599609375
L 221.8834228515625 57.94679565429688
Q 221.8834228515625 60.71144409179688 219.89633178710938 62.655337524414065 217.9524383544922 64.59923095703125 215.1877899169922 64.59923095703125 Z"/>

<path id="Layer0_0_MEMBER_12_1_STROKES" stroke="#272B33" stroke-width="3" stroke-linejoin="round" stroke-linecap="round" fill="none" d="
M 181.14805603027344 143.08932800292968
Q 181.14805603027344 167.8847686767578 163.6098175048828 185.46620483398436 155.3158721923828 193.76015014648436 144.55966186523438 198.2959014892578 133.45787048339844 203.004443359375 121.27613830566406 203.004443359375 109.09440612792969 203.004443359375 97.94941711425781 198.2959014892578 87.23640441894531 193.76015014648436 78.94245910644531 185.46620483398436 61.40422058105469 167.92796630859374 61.40422058105469 143.08932800292968 61.40422058105469 118.29388732910155 78.94245910644531 100.75564880371094 96.48069763183594 83.21741027832032 121.27613830566406 83.21741027832032 146.0715789794922 83.21741027832032 163.6098175048828 100.75564880371094 181.14805603027344 118.29388732910155 181.14805603027344 143.08932800292968 Z"/>

<path id="Layer0_1_MEMBER_0_1_STROKES" stroke="#272B33" stroke-width="3" stroke-linejoin="round" stroke-linecap="round" fill="none" d="
M 941.374267578125 152.8220703125
L 941.374267578125 160.69374999999997
Q 941.374267578125 170.53334960937497 935.518505859375 178.45302734374997
L 932.11064453125 183.01284179687497
Q 931.15068359375 184.35678710937498 931.870654296875 185.8447265625 932.638623046875 187.3806640625 934.3185546875 187.3806640625
L 978.620751953125 187.3806640625
Q 980.30068359375 187.3806640625 981.06865234375 185.8447265625 981.83662109375 184.35678710937498 980.7806640625 183.01284179687497
L 977.180810546875 178.1650390625
Q 971.133056640625 170.19736328124998 971.133056640625 160.21376953124997
L 971.133056640625 152.8220703125 941.374267578125 152.8220703125 Z"/>

<path id="Layer0_1_MEMBER_3_1_STROKES" stroke="#272B33" stroke-width="3" stroke-linejoin="round" stroke-linecap="round" fill="none" d="
M 1007.515576171875 143.70244140625
L 904.46376953125 143.70244140625 904.46376953125 73.1453125 1007.515576171875 73.1453125 1007.515576171875 143.70244140625 Z"/>

<path id="Layer0_1_MEMBER_4_1_STROKES" stroke="#272B33" stroke-width="3" stroke-linejoin="round" stroke-linecap="round" fill="none" d="
M 1007.515576171875 79.72104492187499
L 904.46376953125 79.72104492187499"/>

<path id="Layer0_1_MEMBER_5_1_STROKES" stroke="#272B33" stroke-width="3" stroke-linejoin="round" stroke-linecap="round" fill="none" d="
M 927.0228515625 73.1453125
L 922.4150390625 79.04907226562501"/>

<path id="Layer0_1_MEMBER_6_1_STROKES" stroke="#272B33" stroke-width="3" stroke-linejoin="round" stroke-linecap="round" fill="none" d="
M 940.318310546875 73.1453125
L 944.97412109375 79.04907226562501"/>

<path id="Layer0_1_MEMBER_7_1_STROKES" stroke="#272B33" stroke-width="3" stroke-linejoin="round" stroke-linecap="round" fill="none" d="
M 957.597607421875 73.1453125
L 962.25341796875 79.04907226562501"/>

<path id="Layer0_1_MEMBER_8_MEMBER_0_1_STROKES" stroke="#272B33" stroke-width="1" stroke-linejoin="round" stroke-linecap="round" fill="none" d="
M 908.831591796875 75.64121093749999
L 910.5115234375 77.17714843750001"/>

<path id="Layer0_1_MEMBER_8_MEMBER_1_1_STROKES" stroke="#272B33" stroke-width="1" stroke-linejoin="round" stroke-linecap="round" fill="none" d="
M 910.5115234375 75.64121093749999
L 908.831591796875 77.17714843750001"/>

<path id="Layer0_1_MEMBER_9_1_STROKES" stroke="#272B33" stroke-width="3" stroke-linejoin="round" stroke-linecap="round" fill="none" d="
M 905.1357421875 86.10478515625
L 1006.8916015625 86.10478515625"/>

<path id="Layer0_1_MEMBER_10_1_STROKES" stroke="#272B33" stroke-width="3" stroke-linejoin="round" stroke-linecap="round" fill="none" d="
M 914.25537109375 80.825
L 914.25537109375 85.6248046875"/>

<path id="Layer0_1_MEMBER_11_1_STROKES" stroke="#272B33" stroke-width="3" stroke-linejoin="round" stroke-linecap="round" fill="none" d="
M 999.69189453125 80.825
L 999.69189453125 85.6248046875"/>

<path id="Layer0_1_MEMBER_12_1_STROKES" stroke="#272B33" stroke-width="3" stroke-linejoin="round" stroke-linecap="round" fill="none" d="
M 1006.8916015625 93.78447265625
L 905.1357421875 93.78447265625 905.1357421875 86.10478515625 1006.8916015625 86.10478515625 1006.8916015625 93.78447265625 Z"/>

<path id="Layer0_1_MEMBER_13_MEMBER_0_1_STROKES" stroke="#FFFFFF" stroke-width="3" stroke-linejoin="round" stroke-linecap="round" fill="none" d="
M 996.33203125 89.94462890625
L 1001.1318359375 89.94462890625"/>

<path id="Layer0_1_MEMBER_14_1_STROKES" stroke="#272B33" stroke-width="3" stroke-linejoin="round" stroke-linecap="round" fill="none" d="
M 1007.17958984375 126.903125
L 904.799755859375 126.903125 904.799755859375 93.78447265625 1007.17958984375 93.78447265625 1007.17958984375 126.903125 Z"/>

<path id="Layer0_1_MEMBER_15_1_STROKES" stroke="#272B33" stroke-width="3" stroke-linejoin="round" stroke-linecap="round" fill="none" d="
M 947.134033203125 110.77578124999998
Q 947.134033203125 113.75166015625003 945.022119140625 115.86357421875 942.910205078125 117.97548828124998 939.934326171875 117.97548828124998 936.958447265625 117.97548828124998 934.846533203125 115.86357421875 932.734619140625 113.75166015625003 932.734619140625 110.77578124999998 932.734619140625 107.79990234374999 934.846533203125 105.68798828125001 936.958447265625 103.57607421874998 939.934326171875 103.57607421874998 942.910205078125 103.57607421874998 945.022119140625 105.68798828125001 947.134033203125 107.79990234374999 947.134033203125 110.77578124999998 Z"/>

<path id="Layer0_1_MEMBER_16_MEMBER_0_1_STROKES" stroke="#272B33" stroke-width="3" stroke-linejoin="round" stroke-linecap="round" fill="none" d="
M 959.853515625 104.34404296875
L 966.5732421875 104.34404296875"/>

<path id="Layer0_1_MEMBER_17_MEMBER_0_1_STROKES" stroke="#272B33" stroke-width="3" stroke-linejoin="round" stroke-linecap="round" fill="none" d="
M 959.853515625 110.10380859375
L 980.97265625 110.10380859375"/>

<path id="Layer0_1_MEMBER_18_MEMBER_0_1_STROKES" stroke="#272B33" stroke-width="3" stroke-linejoin="round" stroke-linecap="round" fill="none" d="
M 959.853515625 116.82353515625
L 980.97265625 116.82353515625"/>

<path id="Layer0_1_MEMBER_19_1_STROKES" stroke="#295EF6" stroke-width="1" stroke-linejoin="miter" stroke-linecap="butt" stroke-miterlimit="10" fill="none" d="
M 933.790576171875 137.702685546875
L 926.73486328125 137.702685546875
Q 925.918896484375 137.702685546875 925.294921875 137.07871093749998 924.7189453125 136.45473632812497 924.7189453125 135.63876953124998 924.7189453125 134.822802734375 925.294921875 134.19882812499998 925.918896484375 133.6228515625 926.73486328125 133.6228515625
L 933.790576171875 133.6228515625
Q 934.60654296875 133.6228515625 935.230517578125 134.19882812499998 935.8544921875 134.822802734375 935.8544921875 135.63876953124998 935.8544921875 136.45473632812497 935.230517578125 137.07871093749998 934.60654296875 137.702685546875 933.790576171875 137.702685546875 Z"/>

<path id="Layer0_1_MEMBER_20_1_STROKES" stroke="#295EF6" stroke-width="1" stroke-linejoin="miter" stroke-linecap="butt" stroke-miterlimit="10" fill="none" d="
M 959.997509765625 137.702685546875
L 952.941796875 137.702685546875
Q 952.125830078125 137.702685546875 951.50185546875 137.07871093749998 950.92587890625 136.45473632812497 950.92587890625 135.63876953124998 950.92587890625 134.822802734375 951.50185546875 134.19882812499998 952.125830078125 133.6228515625 952.941796875 133.6228515625
L 959.997509765625 133.6228515625
Q 960.8134765625 133.6228515625 961.437451171875 134.19882812499998 962.013427734375 134.822802734375 962.013427734375 135.63876953124998 962.013427734375 136.45473632812497 961.437451171875 137.07871093749998 960.8134765625 137.702685546875 959.997509765625 137.702685546875 Z"/>

<path id="Layer0_1_MEMBER_21_1_STROKES" stroke="#295EF6" stroke-width="1" stroke-linejoin="miter" stroke-linecap="butt" stroke-miterlimit="10" fill="none" d="
M 987.644384765625 137.702685546875
L 980.588671875 137.702685546875
Q 979.772705078125 137.702685546875 979.14873046875 137.07871093749998 978.57275390625 136.45473632812497 978.57275390625 135.63876953124998 978.57275390625 134.822802734375 979.14873046875 134.19882812499998 979.772705078125 133.6228515625 980.588671875 133.6228515625
L 987.644384765625 133.6228515625
Q 988.4603515625 133.6228515625 989.084326171875 134.19882812499998 989.660302734375 134.822802734375 989.660302734375 135.63876953124998 989.660302734375 136.45473632812497 989.084326171875 137.07871093749998 988.4603515625 137.702685546875 987.644384765625 137.702685546875 Z"/>

<path id="Layer0_1_MEMBER_23_1_STROKES" stroke="#272B33" stroke-width="3" stroke-linejoin="round" stroke-linecap="round" fill="none" d="
M 1011.4994140625 161.74970703125
L 900.479931640625 161.74970703125
Q 896.640087890625 161.74970703125 893.90419921875 159.01381835937497 891.21630859375 156.27792968749998 891.21630859375 152.43808593749998
L 891.21630859375 72.80932617187501
Q 891.21630859375 68.96948242187501 893.90419921875 66.23359375 896.640087890625 63.49770507812501 900.479931640625 63.49770507812501
L 1011.4994140625 63.49770507812501
Q 1015.3392578125 63.49770507812501 1018.075146484375 66.23359375 1020.81103515625 68.96948242187501 1020.81103515625 72.80932617187501
L 1020.81103515625 152.43808593749998
Q 1020.81103515625 156.27792968749998 1018.075146484375 159.01381835937497 1015.3392578125 161.74970703125 1011.4994140625 161.74970703125 Z"/>

<path id="Layer0_1_MEMBER_24_1_STROKES" stroke="#272B33" stroke-width="3" stroke-linejoin="round" stroke-linecap="round" fill="none" d="
M 1020.3310546875 143.70244140625
L 892.65625 143.70244140625"/>

<path id="Layer0_2_MEMBER_0_MEMBER_1_1_STROKES" stroke="#272B33" stroke-width="3" stroke-linejoin="round" stroke-linecap="round" fill="none" d="
M 966.7511718750001 420.0388671875
L 982.926513671875 454.88544921875 959.8394531250001 454.88544921875 956.143603515625 446.24580078125"/>

<path id="Layer0_2_MEMBER_1_MEMBER_1_1_STROKES" stroke="#272B33" stroke-width="3" stroke-linejoin="round" stroke-linecap="round" fill="none" d="
M 944.624072265625 420.0388671875
L 928.44873046875 454.88544921875 951.535791015625 454.88544921875 955.2316406250001 446.24580078125"/>

<path id="Layer0_2_MEMBER_2_1_STROKES" stroke="#272B33" stroke-width="3" stroke-linejoin="round" stroke-linecap="round" fill="none" d="
M 958.8314941406251 436.55019531249997
Q 983.2625 391.43203124999997 971.5989746093751 360.089306640625 967.9511230468751 350.29770507812503 961.1833984375 343.05
L 955.087646484375 337.77021484375
Q 952.54375 339.450146484375 949.2798828125001 343.05 942.84814453125 350.29770507812503 939.48828125 360.089306640625 928.73671875 391.43203124999997 953.167724609375 436.55019531249997
L 958.8314941406251 436.55019531249997 Z"/>

<path id="Layer0_2_MEMBER_4_1_STROKES" stroke="#272B33" stroke-width="3" stroke-linejoin="round" stroke-linecap="round" fill="none" d="
M 963.727294921875 445.717822265625
L 948.655908203125 445.717822265625 950.575830078125 436.55019531249997 961.807373046875 436.55019531249997 963.727294921875 445.717822265625 Z"/>

<path id="Layer0_2_MEMBER_5_MEMBER_1_1_STROKES" stroke="#272B33" stroke-width="3" stroke-linejoin="round" stroke-linecap="round" fill="none" d="
M 950.33583984375 446.10180664062506
L 947.983935546875 449.98964843749997
Q 945.9200195312501 454.69345703125003 947.45595703125 458.72529296875
L 948.5599121093751 457.90932617187497 949.903857421875 461.557177734375
Q 951.823779296875 465.63701171875 954.5596679687501 467.50893554687497
L 956.7195800781251 466.06899414062497
Q 959.1194824218751 464.34106445312506 960.175439453125 462.85312500000003
L 962.6713378906251 464.9650390625
Q 964.3512695312501 463.14111328125006 965.1192382812501 459.82924804687497 966.607177734375 453.25351562500003 962.095361328125 446.10180664062506"/>

<path id="Layer0_2_MEMBER_6_1_STROKES" stroke="#272B33" stroke-width="3" stroke-linejoin="round" stroke-linecap="round" fill="none" d="
M 963.9192871093751 381.97641601562503
Q 963.9192871093751 385.528271484375 961.423388671875 388.07216796874997 958.8794921875001 390.56806640625 955.32763671875 390.56806640625 951.77578125 390.56806640625 949.2798828125001 388.07216796874997 946.783984375 385.528271484375 946.783984375 381.97641601562503 946.783984375 378.42456054687506 949.2798828125001 375.928662109375 951.77578125 373.43276367187497 955.32763671875 373.43276367187497 958.8794921875001 373.43276367187497 961.423388671875 375.928662109375 963.9192871093751 378.42456054687506 963.9192871093751 381.97641601562503 Z"/>

<path id="Layer0_2_MEMBER_7_1_STROKES" stroke="#272B33" stroke-width="3" stroke-linejoin="round" stroke-linecap="round" fill="none" d="
M 959.023486328125 361.81723632812503
Q 959.023486328125 363.35317382812497 957.9195312500001 364.45712890625003 956.86357421875 365.51308593749997 955.32763671875 365.51308593749997 953.7916992187501 365.51308593749997 952.7357421875 364.45712890625003 951.6797851562501 363.35317382812497 951.6797851562501 361.81723632812503 951.6797851562501 360.329296875 952.7357421875 359.22534179687506 953.8396972656251 358.169384765625 955.32763671875 358.169384765625 956.86357421875 358.169384765625 957.9195312500001 359.22534179687506 959.023486328125 360.329296875 959.023486328125 361.81723632812503 Z"/>

<path id="Layer0_2_MEMBER_8_1_STROKES" stroke="#272B33" stroke-width="3" stroke-linejoin="round" stroke-linecap="round" fill="none" d="
M 962.04736328125 430.358447265625
L 972.942919921875 454.88544921875"/>

<path id="Layer0_2_MEMBER_9_1_STROKES" stroke="#272B33" stroke-width="3" stroke-linejoin="round" stroke-linecap="round" fill="none" d="
M 948.943896484375 430.358447265625
L 938.04833984375 454.837451171875"/>

<path id="Layer0_2_MEMBER_10_1_STROKES" stroke="#272B33" stroke-width="3" stroke-linejoin="round" stroke-linecap="round" fill="none" d="
M 956.143603515625 410.29526367187503
Q 954.223681640625 410.29526367187503 952.8317382812501 408.90332031250006 951.4397949218751 407.559375 951.4397949218751 405.59145507812497
L 951.4397949218751 403.57553710937503
Q 951.4397949218751 401.65561523437503 952.8317382812501 400.26367187500006 954.223681640625 398.87172851562497 956.143603515625 398.87172851562497 958.063525390625 398.87172851562497 959.45546875 400.26367187500006 960.7994140625001 401.6076171875 960.7994140625001 403.57553710937503
L 960.7994140625001 405.59145507812497
Q 960.7994140625001 407.559375 959.45546875 408.90332031250006 958.063525390625 410.29526367187503 956.143603515625 410.29526367187503 Z"/>

<path id="Layer0_2_MEMBER_11_1_STROKES" stroke="#272B33" stroke-width="3" stroke-linejoin="round" stroke-linecap="round" fill="none" d="
M 946.783984375 346.40986328125
L 964.06328125 346.40986328125
Q 958.1115234375001 339.450146484375 955.087646484375 337.77021484375 948.3199218750001 344.39394531249997 946.783984375 346.40986328125 Z"/>

<path id="Layer0_2_MEMBER_17_MEMBER_0_1_STROKES" stroke="#295EF6" stroke-width="1" stroke-linejoin="miter" stroke-linecap="butt" stroke-miterlimit="10" fill="none" d="
M 936.70439453125 492.9958984375
L 936.70439453125 482.676318359375 934.3044921875 482.676318359375 934.3044921875 480.03642578125 939.96826171875 480.03642578125 939.96826171875 492.9958984375 936.70439453125 492.9958984375 Z"/>

<path id="Layer0_2_MEMBER_18_MEMBER_0_1_STROKES" stroke="#295EF6" stroke-width="1" stroke-linejoin="miter" stroke-linecap="butt" stroke-miterlimit="10" fill="none" d="
M 896.77001953125 480.276416015625
L 896.77001953125 470.004833984375 894.418115234375 470.004833984375 894.418115234375 467.36494140625 900.0818847656251 467.36494140625 900.0818847656251 480.276416015625 896.77001953125 480.276416015625 Z"/>

<path id="Layer0_2_MEMBER_19_MEMBER_0_1_STROKES" stroke="#295EF6" stroke-width="1" stroke-linejoin="miter" stroke-linecap="butt" stroke-miterlimit="10" fill="none" d="
M 968.6710937500001 484.02026367187506
L 968.6710937500001 473.74868164062497 966.2711914062501 473.74868164062497 966.2711914062501 471.10878906249997 971.9349609375 471.10878906249997 971.9349609375 484.02026367187506 968.6710937500001 484.02026367187506 Z"/>

<path id="Layer0_2_MEMBER_20_MEMBER_0_1_STROKES" stroke="#295EF6" stroke-width="1" stroke-linejoin="miter" stroke-linecap="butt" stroke-miterlimit="10" fill="none" d="
M 992.622119140625 500.86757812499997
L 992.622119140625 490.59599609375 990.222216796875 490.59599609375 990.222216796875 487.956103515625 995.885986328125 487.956103515625 995.885986328125 500.86757812499997 992.622119140625 500.86757812499997 Z"/>

<path id="iconos_otros_ai_Layer_1__Path__2_0_0_Layer0_0_1_STROKES" stroke="#FFFFFF" stroke-width="1" stroke-linejoin="miter" stroke-linecap="butt" stroke-miterlimit="10" fill="none" d="
M 18.2 102.75
Q -7.25 55.75 3.7 23.2 7.1 13.05 13.75 5.5 17.05 1.75 19.7 0.05
L 19.7 113 15.3 113 16.3 104.35 18.2 102.75 Z"/>

<path id="Layer0_2_MEMBER_22_1_STROKES" stroke="#272B33" stroke-width="3" stroke-linejoin="round" stroke-linecap="round" fill="none" d="
M 958.8314941406251 436.55019531249997
Q 983.2625 391.43203124999997 971.5989746093751 360.089306640625 967.9511230468751 350.29770507812503 961.1833984375 343.05
L 955.087646484375 337.77021484375
Q 952.54375 339.450146484375 949.2798828125001 343.05 942.84814453125 350.29770507812503 939.48828125 360.089306640625 928.73671875 391.43203124999997 953.167724609375 436.55019531249997
L 958.8314941406251 436.55019531249997 Z"/>

<path id="Layer0_2_MEMBER_23_1_STROKES" stroke="#272B33" stroke-width="3" stroke-linejoin="round" stroke-linecap="round" fill="none" d="
M 963.727294921875 445.717822265625
L 948.655908203125 445.717822265625 950.575830078125 436.55019531249997 961.807373046875 436.55019531249997 963.727294921875 445.717822265625 Z"/>

<path id="Layer0_3_MEMBER_0_1_STROKES" stroke="#272B33" stroke-width="3" stroke-linejoin="round" stroke-linecap="round" fill="none" d="
M 190.95628356933594 361.2261878967285
L 190.95628356933594 432.4750549316406
Q 190.95628356933594 436.3917266845703 188.1915740966797 439.2140342712402 185.42686462402344 441.9787437438965 181.51019287109375 441.9787437438965
L 80.77109146118164 441.9787437438965
Q 76.85441970825195 441.9787437438965 74.03211212158203 439.2140342712402 71.26740264892578 436.3917266845703 71.26740264892578 432.4750549316406
L 71.26740264892578 361.2261878967285
Q 71.26740264892578 357.3095161437988 74.03211212158203 354.4872085571289 76.85441970825195 351.72249908447264 80.77109146118164 351.72249908447264
L 181.51019287109375 351.72249908447264
Q 185.42686462402344 351.72249908447264 188.1915740966797 354.4872085571289 190.95628356933594 357.3095161437988 190.95628356933594 361.2261878967285 Z"/>

<path id="Layer0_3_MEMBER_2_MEMBER_0_1_STROKES" stroke="#FFFFFF" stroke-width="3" stroke-linejoin="round" stroke-linecap="round" fill="none" d="
M 76.10564422607422 390.5436279296875
L 76.10564422607422 402.06325073242186"/>

<path id="Layer0_3_MEMBER_3_MEMBER_0_1_STROKES" stroke="#FFFFFF" stroke-width="3" stroke-linejoin="round" stroke-linecap="round" fill="none" d="
M 185.54206085205078 395.15147705078124
L 185.54206085205078 397.4554016113281"/>

<path id="iconos_otros_ai_Layer_1__Clip_Group__0_Layer2_0_MEMBER_6_MEMBER_0_1_STROKES" stroke="#5BCD73" stroke-width="1" stroke-linejoin="miter" stroke-linecap="round" stroke-miterlimit="10" fill="none" d="
M 54.25 7.45
L 50.55 14"/>

<path id="iconos_otros_ai_Layer_1__Clip_Group__0_Layer2_0_MEMBER_7_MEMBER_0_1_STROKES" stroke="#5BCD73" stroke-width="1" stroke-linejoin="miter" stroke-linecap="round" stroke-miterlimit="10" fill="none" d="
M 31.75 7.45
L 35.45 14"/>

<path id="Layer0_3_MEMBER_7_1_STROKES" stroke="#272B33" stroke-width="3" stroke-linejoin="round" stroke-linecap="round" fill="none" d="
M 178.16950225830078 433.1662322998047
L 84.28457641601562 433.1662322998047
Q 83.01741790771484 433.1662322998047 82.15344619750977 432.2446624755859 81.28947448730469 431.38069076538085 81.28947448730469 430.11353225708007
L 81.28947448730469 362.8389350891113
Q 81.28947448730469 361.57177658081054 82.15344619750977 360.70780487060546 83.01741790771484 359.7862350463867 84.28457641601562 359.7862350463867
L 178.16950225830078 359.7862350463867
Q 179.43666076660156 359.7862350463867 180.30063247680664 360.70780487060546 181.2222023010254 361.57177658081054 181.2222023010254 362.8389350891113
L 181.2222023010254 430.11353225708007
Q 181.2222023010254 431.38069076538085 180.30063247680664 432.2446624755859 179.43666076660156 433.1662322998047 178.16950225830078 433.1662322998047 Z"/>

<path id="Layer0_3_MEMBER_8_1_STROKES" stroke="#272B33" stroke-width="3" stroke-linejoin="round" stroke-linecap="round" fill="none" d="
M 211.23081970214844 477.8047706604004
L 173.73444747924805 477.8047706604004
Q 171.7761116027832 477.8047706604004 170.3361587524414 476.42241592407225 168.95380401611328 475.04006118774413 168.95380401611328 473.0241271972656
L 168.95380401611328 406.3255111694336
Q 168.95380401611328 404.36717529296874 170.3361587524414 402.92722244262694 171.7761116027832 401.5448677062988 173.73444747924805 401.5448677062988
L 211.23081970214844 401.5448677062988
Q 213.24675369262695 401.5448677062988 214.62910842895508 402.92722244262694 216.06906127929688 404.36717529296874 216.06906127929688 406.3255111694336
L 216.0114631652832 473.0241271972656
Q 216.0114631652832 475.04006118774413 214.62910842895508 476.42241592407225 213.24675369262695 477.8047706604004 211.23081970214844 477.8047706604004 Z"/>

<path id="Layer0_3_MEMBER_11_MEMBER_0_1_STROKES" stroke="#272B33" stroke-width="3" stroke-linejoin="round" stroke-linecap="round" fill="none" d="
M 195.333740234375 406.0951187133789
L 190.72589111328125 406.0951187133789"/>

<path id="Layer0_3_MEMBER_16_1_STROKES" stroke="#272B33" stroke-width="3" stroke-linejoin="round" stroke-linecap="round" fill="none" d="
M 168.95380401611328 464.8451950073242
L 168.95380401611328 413.4100791931152
Q 168.95380401611328 412.14292068481444 169.87537384033203 411.27894897460936 170.7393455505371 410.3573791503906 172.0065040588379 410.3573791503906
L 213.01636123657227 410.3573791503906
Q 214.28351974487305 410.3573791503906 215.14749145507812 411.27894897460936 216.06906127929688 412.14292068481444 216.06906127929688 413.4100791931152
L 216.06906127929688 464.8451950073242
Q 216.06906127929688 466.112353515625 215.14749145507812 466.97632522583007 214.28351974487305 467.8978950500488 213.01636123657227 467.8978950500488
L 172.0065040588379 467.8978950500488
Q 170.7393455505371 467.8978950500488 169.87537384033203 466.97632522583007 168.95380401611328 466.112353515625 168.95380401611328 464.8451950073242 Z"/>
</defs>

<g transform="matrix( 0.86395263671875, 0, 0, 0.86395263671875, -80.5,-7.8) ">
<use xlink:href="#Layer0_0_MEMBER_0_FILL"/>

<use xlink:href="#Layer0_0_MEMBER_0_1_STROKES" transform="matrix( 1.157470703125, 0, 0, 1.157470703125, 93.15,9) "/>
</g>

<g transform="matrix( 0.86395263671875, 0, 0, 0.86395263671875, -80.5,-7.8) ">
<use xlink:href="#Layer0_0_MEMBER_1_FILL"/>
</g>

<g transform="matrix( 0.86395263671875, 0, 0, 0.86395263671875, -80.5,-7.8) ">
<use xlink:href="#Layer0_0_MEMBER_2_FILL"/>
</g>

<g transform="matrix( 0.86395263671875, 0, 0, 0.86395263671875, -80.5,-7.8) ">
<use xlink:href="#Layer0_0_MEMBER_3_FILL"/>
</g>

<g transform="matrix( 0.86395263671875, 0, 0, 0.86395263671875, -80.5,-7.8) ">
<use xlink:href="#Layer0_0_MEMBER_4_1_STROKES" transform="matrix( 1.157470703125, 0, 0, 1.157470703125, 93.15,9) "/>
</g>

<g transform="matrix( 0.86395263671875, 0, 0, 0.86395263671875, -80.5,-7.8) ">
<use xlink:href="#Layer0_0_MEMBER_5_1_STROKES" transform="matrix( 1.157470703125, 0, 0, 1.157470703125, 93.15,9) "/>
</g>

<g transform="matrix( 0.86395263671875, 0, 0, 0.86395263671875, -80.5,-7.8) ">
<use xlink:href="#Layer0_0_MEMBER_6_1_STROKES" transform="matrix( 1.157470703125, 0, 0, 1.157470703125, 93.15,9) "/>
</g>

<g transform="matrix( 0.86395263671875, 0, 0, 0.86395263671875, -80.5,-7.8) ">
<use xlink:href="#Layer0_0_MEMBER_7_1_STROKES" transform="matrix( 1.157470703125, 0, 0, 1.157470703125, 93.15,9) "/>
</g>

<g transform="matrix( 0.86395263671875, 0, 0, 0.86395263671875, -80.5,-7.8) ">
<use xlink:href="#Layer0_0_MEMBER_8_1_STROKES" transform="matrix( 1.157470703125, 0, 0, 1.157470703125, 93.15,9) "/>
</g>

<g transform="matrix( 0.86395263671875, 0, 0, 0.86395263671875, -80.5,-7.8) ">
<use xlink:href="#Layer0_0_MEMBER_9_1_STROKES" transform="matrix( 1.157470703125, 0, 0, 1.157470703125, 93.15,9) "/>
</g>

<g transform="matrix( 0.86395263671875, 0, 0, 0.86395263671875, -80.5,-7.8) ">
<use xlink:href="#Layer0_0_MEMBER_10_MEMBER_0_FILL"/>
</g>

<g transform="matrix( 0.86395263671875, 0, 0, 0.86395263671875, -80.5,-7.8) ">
<use xlink:href="#Layer0_0_MEMBER_10_MEMBER_1_FILL"/>
</g>

<g transform="matrix( 0.86395263671875, 0, 0, 0.86395263671875, -80.5,-7.8) ">
<use xlink:href="#Layer0_0_MEMBER_10_MEMBER_2_FILL"/>
</g>

<g transform="matrix( 0.86395263671875, 0, 0, 0.86395263671875, -80.5,-7.8) ">
<use xlink:href="#Layer0_0_MEMBER_10_MEMBER_3_FILL"/>
</g>

<g transform="matrix( 0.86395263671875, 0, 0, 0.86395263671875, -80.5,-7.8) ">
<use xlink:href="#Layer0_0_MEMBER_10_MEMBER_4_FILL"/>
</g>

<g transform="matrix( 0.86395263671875, 0, 0, 0.86395263671875, -80.5,-7.8) ">
<use xlink:href="#Layer0_0_MEMBER_10_MEMBER_5_FILL"/>
</g>

<g transform="matrix( 0.86395263671875, 0, 0, 0.86395263671875, -80.5,-7.8) ">
<use xlink:href="#Layer0_0_MEMBER_10_MEMBER_6_FILL"/>
</g>

<g transform="matrix( 0.86395263671875, 0, 0, 0.86395263671875, -80.5,-7.8) ">
<use xlink:href="#Layer0_0_MEMBER_10_MEMBER_7_FILL"/>
</g>

<g transform="matrix( 0.86395263671875, 0, 0, 0.86395263671875, -80.5,-7.8) ">
<use xlink:href="#Layer0_0_MEMBER_10_MEMBER_8_FILL"/>
</g>

<g transform="matrix( 0.86395263671875, 0, 0, 0.86395263671875, -80.5,-7.8) ">
<use xlink:href="#Layer0_0_MEMBER_11_1_STROKES" transform="matrix( 1.157470703125, 0, 0, 1.157470703125, 93.15,9) "/>
</g>

<g transform="matrix( 0.86395263671875, 0, 0, 0.86395263671875, -80.5,-7.8) ">
<use xlink:href="#Layer0_0_MEMBER_12_1_STROKES" transform="matrix( 1.157470703125, 0, 0, 1.157470703125, 93.15,9) "/>
</g>

<g transform="matrix( 0.9599609375, 0, 0, 0.9599609375, 554.75,-42.05) ">
<use xlink:href="#Layer0_1_MEMBER_0_1_STROKES" transform="matrix( 1.0417022705078125, 0, 0, 1.0417022705078125, -577.85,43.8) "/>
</g>

<g transform="matrix( 0.9599609375, 0, 0, 0.9599609375, 554.75,-42.05) ">
<use xlink:href="#Layer0_1_MEMBER_1_FILL"/>
</g>

<g transform="matrix( 0.9599609375, 0, 0, 0.9599609375, 554.75,-42.05) ">
<use xlink:href="#Layer0_1_MEMBER_2_FILL"/>
</g>

<g transform="matrix( 0.9599609375, 0, 0, 0.9599609375, 554.75,-42.05) ">
<use xlink:href="#Layer0_1_MEMBER_3_FILL"/>

<use xlink:href="#Layer0_1_MEMBER_3_1_STROKES" transform="matrix( 1.0417022705078125, 0, 0, 1.0417022705078125, -577.85,43.8) "/>
</g>

<g transform="matrix( 0.9599609375, 0, 0, 0.9599609375, 554.75,-42.05) ">
<use xlink:href="#Layer0_1_MEMBER_4_1_STROKES" transform="matrix( 1.0417022705078125, 0, 0, 1.0417022705078125, -577.85,43.8) "/>
</g>

<g transform="matrix( 0.9599609375, 0, 0, 0.9599609375, 554.75,-42.05) ">
<use xlink:href="#Layer0_1_MEMBER_5_1_STROKES" transform="matrix( 1.0417022705078125, 0, 0, 1.0417022705078125, -577.85,43.8) "/>
</g>

<g transform="matrix( 0.9599609375, 0, 0, 0.9599609375, 554.75,-42.05) ">
<use xlink:href="#Layer0_1_MEMBER_6_1_STROKES" transform="matrix( 1.0417022705078125, 0, 0, 1.0417022705078125, -577.85,43.8) "/>
</g>

<g transform="matrix( 0.9599609375, 0, 0, 0.9599609375, 554.75,-42.05) ">
<use xlink:href="#Layer0_1_MEMBER_7_1_STROKES" transform="matrix( 1.0417022705078125, 0, 0, 1.0417022705078125, -577.85,43.8) "/>
</g>

<g transform="matrix( 0.9599609375, 0, 0, 0.9599609375, 554.75,-42.05) ">
<use xlink:href="#Layer0_1_MEMBER_8_MEMBER_0_1_STROKES" transform="matrix( 1.0417022705078125, 0, 0, 1.0417022705078125, -577.85,43.8) "/>
</g>

<g transform="matrix( 0.9599609375, 0, 0, 0.9599609375, 554.75,-42.05) ">
<use xlink:href="#Layer0_1_MEMBER_8_MEMBER_1_1_STROKES" transform="matrix( 1.0417022705078125, 0, 0, 1.0417022705078125, -577.85,43.8) "/>
</g>

<g transform="matrix( 0.9599609375, 0, 0, 0.9599609375, 554.75,-42.05) ">
<use xlink:href="#Layer0_1_MEMBER_9_1_STROKES" transform="matrix( 1.0417022705078125, 0, 0, 1.0417022705078125, -577.85,43.8) "/>
</g>

<g transform="matrix( 0.9599609375, 0, 0, 0.9599609375, 554.75,-42.05) ">
<use xlink:href="#Layer0_1_MEMBER_10_1_STROKES" transform="matrix( 1.0417022705078125, 0, 0, 1.0417022705078125, -577.85,43.8) "/>
</g>

<g transform="matrix( 0.9599609375, 0, 0, 0.9599609375, 554.75,-42.05) ">
<use xlink:href="#Layer0_1_MEMBER_11_1_STROKES" transform="matrix( 1.0417022705078125, 0, 0, 1.0417022705078125, -577.85,43.8) "/>
</g>

<g transform="matrix( 0.9599609375, 0, 0, 0.9599609375, 554.75,-42.05) ">
<use xlink:href="#Layer0_1_MEMBER_12_FILL"/>

<use xlink:href="#Layer0_1_MEMBER_12_1_STROKES" transform="matrix( 1.0417022705078125, 0, 0, 1.0417022705078125, -577.85,43.8) "/>
</g>

<g transform="matrix( 0.9599609375, 0, 0, 0.9599609375, 554.75,-42.05) ">
<use xlink:href="#Layer0_1_MEMBER_13_MEMBER_0_1_STROKES" transform="matrix( 1.0417022705078125, 0, 0, 1.0417022705078125, -577.85,43.8) "/>
</g>

<g transform="matrix( 0.9599609375, 0, 0, 0.9599609375, 554.75,-42.05) ">
<use xlink:href="#Layer0_1_MEMBER_14_FILL"/>

<use xlink:href="#Layer0_1_MEMBER_14_1_STROKES" transform="matrix( 1.0417022705078125, 0, 0, 1.0417022705078125, -577.85,43.8) "/>
</g>

<g transform="matrix( 0.9599609375, 0, 0, 0.9599609375, 554.75,-42.05) ">
<use xlink:href="#Layer0_1_MEMBER_15_FILL"/>

<use xlink:href="#Layer0_1_MEMBER_15_1_STROKES" transform="matrix( 1.0417022705078125, 0, 0, 1.0417022705078125, -577.85,43.8) "/>
</g>

<g transform="matrix( 0.9599609375, 0, 0, 0.9599609375, 554.75,-42.05) ">
<use xlink:href="#Layer0_1_MEMBER_16_MEMBER_0_1_STROKES" transform="matrix( 1.0417022705078125, 0, 0, 1.0417022705078125, -577.85,43.8) "/>
</g>

<g transform="matrix( 0.9599609375, 0, 0, 0.9599609375, 554.75,-42.05) ">
<use xlink:href="#Layer0_1_MEMBER_17_MEMBER_0_1_STROKES" transform="matrix( 1.0417022705078125, 0, 0, 1.0417022705078125, -577.85,43.8) "/>
</g>

<g transform="matrix( 0.9599609375, 0, 0, 0.9599609375, 554.75,-42.05) ">
<use xlink:href="#Layer0_1_MEMBER_18_MEMBER_0_1_STROKES" transform="matrix( 1.0417022705078125, 0, 0, 1.0417022705078125, -577.85,43.8) "/>
</g>

<g transform="matrix( 0.9599609375, 0, 0, 0.9599609375, 554.75,-42.05) ">
<use xlink:href="#Layer0_1_MEMBER_19_FILL"/>

<use xlink:href="#Layer0_1_MEMBER_19_1_STROKES" transform="matrix( 1.0417022705078125, 0, 0, 1.0417022705078125, -577.85,43.8) "/>
</g>

<g transform="matrix( 0.9599609375, 0, 0, 0.9599609375, 554.75,-42.05) ">
<use xlink:href="#Layer0_1_MEMBER_20_FILL"/>

<use xlink:href="#Layer0_1_MEMBER_20_1_STROKES" transform="matrix( 1.0417022705078125, 0, 0, 1.0417022705078125, -577.85,43.8) "/>
</g>

<g transform="matrix( 0.9599609375, 0, 0, 0.9599609375, 554.75,-42.05) ">
<use xlink:href="#Layer0_1_MEMBER_21_FILL"/>

<use xlink:href="#Layer0_1_MEMBER_21_1_STROKES" transform="matrix( 1.0417022705078125, 0, 0, 1.0417022705078125, -577.85,43.8) "/>
</g>

<g transform="matrix( 0.9599609375, 0, 0, 0.9599609375, 891.25,63.45) ">
<g transform="matrix( 1, 0, 0, 1, 0,0) ">
<use filter="url(#Filter_1)" xlink:href="#iconos_otros_ai_Layer_1__Path__2_0_Layer0_0_FILL"/>
</g>
</g>

<g transform="matrix( 0.9599609375, 0, 0, 0.9599609375, 554.75,-42.05) ">
<use xlink:href="#Layer0_1_MEMBER_23_1_STROKES" transform="matrix( 1.0417022705078125, 0, 0, 1.0417022705078125, -577.85,43.8) "/>
</g>

<g transform="matrix( 0.9599609375, 0, 0, 0.9599609375, 554.75,-42.05) ">
<use xlink:href="#Layer0_1_MEMBER_24_1_STROKES" transform="matrix( 1.0417022705078125, 0, 0, 1.0417022705078125, -577.85,43.8) "/>
</g>

<g transform="matrix( 0.9599609375, 0, 0, 0.9599609375, 553.2,97.3) ">
<use xlink:href="#Layer0_2_MEMBER_0_MEMBER_0_FILL"/>
</g>

<g transform="matrix( 0.9599609375, 0, 0, 0.9599609375, 553.2,97.3) ">
<use xlink:href="#Layer0_2_MEMBER_0_MEMBER_1_1_STROKES" transform="matrix( 1.0417022705078125, 0, 0, 1.0417022705078125, -576.25,-101.35) "/>
</g>

<g transform="matrix( 0.9599609375, 0, 0, 0.9599609375, 553.2,97.3) ">
<use xlink:href="#Layer0_2_MEMBER_1_MEMBER_0_FILL"/>
</g>

<g transform="matrix( 0.9599609375, 0, 0, 0.9599609375, 553.2,97.3) ">
<use xlink:href="#Layer0_2_MEMBER_1_MEMBER_1_1_STROKES" transform="matrix( 1.0417022705078125, 0, 0, 1.0417022705078125, -576.25,-101.35) "/>
</g>

<g transform="matrix( 0.9599609375, 0, 0, 0.9599609375, 553.2,97.3) ">
<use xlink:href="#Layer0_2_MEMBER_2_FILL"/>

<use xlink:href="#Layer0_2_MEMBER_2_1_STROKES" transform="matrix( 1.0417022705078125, 0, 0, 1.0417022705078125, -576.25,-101.35) "/>
</g>

<g transform="matrix( 0.9599609375, 0, 0, 0.9599609375, 553.2,97.3) ">
<use xlink:href="#Layer0_2_MEMBER_3_FILL"/>
</g>

<g transform="matrix( 0.9599609375, 0, 0, 0.9599609375, 553.2,97.3) ">
<use xlink:href="#Layer0_2_MEMBER_4_FILL"/>

<use xlink:href="#Layer0_2_MEMBER_4_1_STROKES" transform="matrix( 1.0417022705078125, 0, 0, 1.0417022705078125, -576.25,-101.35) "/>
</g>

<g transform="matrix( 0.9599609375, 0, 0, 0.9599609375, 553.2,97.3) ">
<use xlink:href="#Layer0_2_MEMBER_5_MEMBER_0_FILL"/>
</g>

<g transform="matrix( 0.9599609375, 0, 0, 0.9599609375, 553.2,97.3) ">
<use xlink:href="#Layer0_2_MEMBER_5_MEMBER_1_1_STROKES" transform="matrix( 1.0417022705078125, 0, 0, 1.0417022705078125, -576.25,-101.35) "/>
</g>

<g transform="matrix( 0.9599609375, 0, 0, 0.9599609375, 553.2,97.3) ">
<use xlink:href="#Layer0_2_MEMBER_6_FILL"/>

<use xlink:href="#Layer0_2_MEMBER_6_1_STROKES" transform="matrix( 1.0417022705078125, 0, 0, 1.0417022705078125, -576.25,-101.35) "/>
</g>

<g transform="matrix( 0.9599609375, 0, 0, 0.9599609375, 553.2,97.3) ">
<use xlink:href="#Layer0_2_MEMBER_7_FILL"/>

<use xlink:href="#Layer0_2_MEMBER_7_1_STROKES" transform="matrix( 1.0417022705078125, 0, 0, 1.0417022705078125, -576.25,-101.35) "/>
</g>

<g transform="matrix( 0.9599609375, 0, 0, 0.9599609375, 553.2,97.3) ">
<use xlink:href="#Layer0_2_MEMBER_8_1_STROKES" transform="matrix( 1.0417022705078125, 0, 0, 1.0417022705078125, -576.25,-101.35) "/>
</g>

<g transform="matrix( 0.9599609375, 0, 0, 0.9599609375, 553.2,97.3) ">
<use xlink:href="#Layer0_2_MEMBER_9_1_STROKES" transform="matrix( 1.0417022705078125, 0, 0, 1.0417022705078125, -576.25,-101.35) "/>
</g>

<g transform="matrix( 0.9599609375, 0, 0, 0.9599609375, 553.2,97.3) ">
<use xlink:href="#Layer0_2_MEMBER_10_FILL"/>

<use xlink:href="#Layer0_2_MEMBER_10_1_STROKES" transform="matrix( 1.0417022705078125, 0, 0, 1.0417022705078125, -576.25,-101.35) "/>
</g>

<g transform="matrix( 0.9599609375, 0, 0, 0.9599609375, 553.2,97.3) ">
<use xlink:href="#Layer0_2_MEMBER_11_FILL"/>

<use xlink:href="#Layer0_2_MEMBER_11_1_STROKES" transform="matrix( 1.0417022705078125, 0, 0, 1.0417022705078125, -576.25,-101.35) "/>
</g>

<g transform="matrix( 0.9599609375, 0, 0, 0.9599609375, 553.2,97.3) ">
<use xlink:href="#Layer0_2_MEMBER_12_MEMBER_0_FILL"/>
</g>

<g transform="matrix( 0.9599609375, 0, 0, 0.9599609375, 553.2,97.3) ">
<use xlink:href="#Layer0_2_MEMBER_13_MEMBER_0_FILL"/>
</g>

<g transform="matrix( 0.9599609375, 0, 0, 0.9599609375, 553.2,97.3) ">
<use xlink:href="#Layer0_2_MEMBER_14_MEMBER_0_FILL"/>
</g>

<g transform="matrix( 0.9599609375, 0, 0, 0.9599609375, 553.2,97.3) ">
<use xlink:href="#Layer0_2_MEMBER_15_MEMBER_0_FILL"/>
</g>

<g transform="matrix( 0.9599609375, 0, 0, 0.9599609375, 553.2,97.3) ">
<use xlink:href="#Layer0_2_MEMBER_16_MEMBER_0_FILL"/>
</g>

<g transform="matrix( 0.9599609375, 0, 0, 0.9599609375, 553.2,97.3) ">
<use xlink:href="#Layer0_2_MEMBER_17_MEMBER_0_FILL"/>

<use xlink:href="#Layer0_2_MEMBER_17_MEMBER_0_1_STROKES" transform="matrix( 1.0417022705078125, 0, 0, 1.0417022705078125, -576.25,-101.35) "/>
</g>

<g transform="matrix( 0.9599609375, 0, 0, 0.9599609375, 553.2,97.3) ">
<use xlink:href="#Layer0_2_MEMBER_18_MEMBER_0_FILL"/>

<use xlink:href="#Layer0_2_MEMBER_18_MEMBER_0_1_STROKES" transform="matrix( 1.0417022705078125, 0, 0, 1.0417022705078125, -576.25,-101.35) "/>
</g>

<g transform="matrix( 0.9599609375, 0, 0, 0.9599609375, 553.2,97.3) ">
<use xlink:href="#Layer0_2_MEMBER_19_MEMBER_0_FILL"/>

<use xlink:href="#Layer0_2_MEMBER_19_MEMBER_0_1_STROKES" transform="matrix( 1.0417022705078125, 0, 0, 1.0417022705078125, -576.25,-101.35) "/>
</g>

<g transform="matrix( 0.9599609375, 0, 0, 0.9599609375, 553.2,97.3) ">
<use xlink:href="#Layer0_2_MEMBER_20_MEMBER_0_FILL"/>

<use xlink:href="#Layer0_2_MEMBER_20_MEMBER_0_1_STROKES" transform="matrix( 1.0417022705078125, 0, 0, 1.0417022705078125, -576.25,-101.35) "/>
</g>

<g transform="matrix( 0.9599609375, 0, 0, 0.9599609375, 936.05,337.75) ">
<g transform="matrix( 1, 0, 0, 1, 0,0) ">
<use filter="url(#Filter_1)" xlink:href="#iconos_otros_ai_Layer_1__Path__2_0_0_Layer0_0_FILL"/>

<use filter="url(#Filter_1)" xlink:href="#iconos_otros_ai_Layer_1__Path__2_0_0_Layer0_0_1_STROKES"/>
</g>
</g>

<g transform="matrix( 0.9599609375, 0, 0, 0.9599609375, 553.2,97.3) ">
<use xlink:href="#Layer0_2_MEMBER_22_1_STROKES" transform="matrix( 1.0417022705078125, 0, 0, 1.0417022705078125, -576.25,-101.35) "/>
</g>

<g transform="matrix( 0.9599609375, 0, 0, 0.9599609375, 553.2,97.3) ">
<use xlink:href="#Layer0_2_MEMBER_23_1_STROKES" transform="matrix( 1.0417022705078125, 0, 0, 1.0417022705078125, -576.25,-101.35) "/>
</g>

<g transform="matrix( 1.1519622802734375, 0, 0, 1.1519622802734375, -118,12.7) ">
<use xlink:href="#Layer0_3_MEMBER_0_FILL"/>

<use xlink:href="#Layer0_3_MEMBER_0_1_STROKES" transform="matrix( 0.868072509765625, 0, 0, 0.868072509765625, 102.4,-11) "/>
</g>

<g transform="matrix( 1.1519622802734375, 0, 0, 1.1519622802734375, -118,12.7) ">
<use xlink:href="#Layer0_3_MEMBER_1_FILL"/>
</g>

<g transform="matrix( 1.1519622802734375, 0, 0, 1.1519622802734375, -118,12.7) ">
<use xlink:href="#Layer0_3_MEMBER_2_MEMBER_0_1_STROKES" transform="matrix( 0.868072509765625, 0, 0, 0.868072509765625, 102.4,-11) "/>
</g>

<g transform="matrix( 1.1519622802734375, 0, 0, 1.1519622802734375, -118,12.7) ">
<use xlink:href="#Layer0_3_MEMBER_3_MEMBER_0_1_STROKES" transform="matrix( 0.868072509765625, 0, 0, 0.868072509765625, 102.4,-11) "/>
</g>

<g transform="matrix( 1.1519622802734375, 0, 0, 1.1519622802734375, -118,12.7) ">
<use xlink:href="#Layer0_3_MEMBER_4_FILL"/>
</g>

<g transform="matrix( 1.1519622802734375, 0, 0, 1.1519622802734375, 81.3,359.75) ">
<mask id="Mask_Mask_1">
<g transform="matrix( 1, 0, 0, 1, 0,0) ">
<use xlink:href="#Mask_iconos_otros_ai_Layer_1__Clip_Group__0_2_MASK_0_FILL"/>
</g>
</mask>

<g mask="url(#Mask_Mask_1)">
<g transform="matrix( 1, 0, 0, 1, 0,0) ">
<use xlink:href="#iconos_otros_ai_Layer_1__Clip_Group__0_Layer2_0_MEMBER_0_FILL"/>
</g>

<g transform="matrix( 1, 0, 0, 1, 0,0) ">
<use xlink:href="#iconos_otros_ai_Layer_1__Clip_Group__0_Layer2_0_MEMBER_1_FILL"/>
</g>

<g transform="matrix( 1, 0, 0, 1, 0,0) ">
<use xlink:href="#iconos_otros_ai_Layer_1__Clip_Group__0_Layer2_0_MEMBER_2_FILL"/>
</g>

<g transform="matrix( 1, 0, 0, 1, 0,0) ">
<use xlink:href="#iconos_otros_ai_Layer_1__Clip_Group__0_Layer2_0_MEMBER_3_FILL"/>
</g>

<g transform="matrix( 1, 0, 0, 1, 0,0) ">
<use xlink:href="#iconos_otros_ai_Layer_1__Clip_Group__0_Layer2_0_MEMBER_4_FILL"/>
</g>

<g transform="matrix( 1, 0, 0, 1, 0,0) ">
<use xlink:href="#iconos_otros_ai_Layer_1__Clip_Group__0_Layer2_0_MEMBER_5_FILL"/>
</g>

<g transform="matrix( 1, 0, 0, 1, 0,0) ">
<use xlink:href="#iconos_otros_ai_Layer_1__Clip_Group__0_Layer2_0_MEMBER_6_MEMBER_0_1_STROKES"/>
</g>

<g transform="matrix( 1, 0, 0, 1, 0,0) ">
<use xlink:href="#iconos_otros_ai_Layer_1__Clip_Group__0_Layer2_0_MEMBER_7_MEMBER_0_1_STROKES"/>
</g>

<g transform="matrix( 1, 0, 0, 1, 0,0) ">
<use xlink:href="#iconos_otros_ai_Layer_1__Clip_Group__0_Layer2_0_MEMBER_8_FILL"/>
</g>

<g transform="matrix( 1, 0, 0, 1, 0,0) ">
<use xlink:href="#iconos_otros_ai_Layer_1__Clip_Group__0_Layer2_0_MEMBER_9_FILL"/>
</g>
</g>
</g>

<g transform="matrix( 1.1519622802734375, 0, 0, 1.1519622802734375, 82.8,360.4) ">
<g transform="matrix( 1, 0, 0, 1, 0,0) ">
<use filter="url(#Filter_1)" xlink:href="#iconos_otros_ai_Layer_1__Path__9_0_Layer0_0_FILL"/>
</g>
</g>

<g transform="matrix( 1.1519622802734375, 0, 0, 1.1519622802734375, -118,12.7) ">
<use xlink:href="#Layer0_3_MEMBER_7_1_STROKES" transform="matrix( 0.868072509765625, 0, 0, 0.868072509765625, 102.4,-11) "/>
</g>

<g transform="matrix( 1.1519622802734375, 0, 0, 1.1519622802734375, -118,12.7) ">
<use xlink:href="#Layer0_3_MEMBER_8_FILL"/>

<use xlink:href="#Layer0_3_MEMBER_8_1_STROKES" transform="matrix( 0.868072509765625, 0, 0, 0.868072509765625, 102.4,-11) "/>
</g>

<g transform="matrix( 1.1519622802734375, 0, 0, 1.1519622802734375, -118,12.7) ">
<use xlink:href="#Layer0_3_MEMBER_9_FILL"/>
</g>

<g transform="matrix( 1.1519622802734375, 0, 0, 1.1519622802734375, 168.95,410.3) ">
<g transform="matrix( 1, 0, 0, 1, 0,0) ">
<use filter="url(#Filter_1)" xlink:href="#iconos_otros_ai_Layer_1__Path__5_0_Layer0_0_FILL"/>
</g>
</g>

<g transform="matrix( 1.1519622802734375, 0, 0, 1.1519622802734375, -118,12.7) ">
<use xlink:href="#Layer0_3_MEMBER_11_MEMBER_0_1_STROKES" transform="matrix( 0.868072509765625, 0, 0, 0.868072509765625, 102.4,-11) "/>
</g>

<g transform="matrix( 1.1519622802734375, 0, 0, 1.1519622802734375, -118,12.7) ">
<use xlink:href="#Layer0_3_MEMBER_12_FILL"/>
</g>

<g transform="matrix( 1.1519622802734375, 0, 0, 1.1519622802734375, -118,12.7) ">
<use xlink:href="#Layer0_3_MEMBER_13_FILL"/>
</g>

<g transform="matrix( 1.1519622802734375, 0, 0, 1.1519622802734375, -118,12.7) ">
<use xlink:href="#Layer0_3_MEMBER_14_FILL"/>
</g>

<g transform="matrix( 1.1519622802734375, 0, 0, 1.1519622802734375, -118,12.7) ">
<use xlink:href="#Layer0_3_MEMBER_15_MEMBER_0_FILL"/>
</g>

<g transform="matrix( 1.1519622802734375, 0, 0, 1.1519622802734375, -118,12.7) ">
<use xlink:href="#Layer0_3_MEMBER_15_MEMBER_1_FILL"/>
</g>

<g transform="matrix( 1.1519622802734375, 0, 0, 1.1519622802734375, -118,12.7) ">
<use xlink:href="#Layer0_3_MEMBER_15_MEMBER_2_FILL"/>
</g>

<g transform="matrix( 1.1519622802734375, 0, 0, 1.1519622802734375, -118,12.7) ">
<use xlink:href="#Layer0_3_MEMBER_16_1_STROKES" transform="matrix( 0.868072509765625, 0, 0, 0.868072509765625, 102.4,-11) "/>
</g>
</svg>
