
<svg xmlns="http://www.w3.org/2000/svg" version="1.1" xmlns:xlink="http://www.w3.org/1999/xlink" preserveAspectRatio="none" x="0px" y="0px" width="250px" height="250px" viewBox="0 0 250 250">
<defs>
<linearGradient id="Gradient_1" gradientUnits="userSpaceOnUse" x1="259.2375" y1="358.4875" x2="285.96250000000003" y2="385.21250000000003" spreadMethod="pad">
<stop  offset="0%" stop-color="#FFFFFF"/>

<stop  offset="100%" stop-color="#CCCCCC"/>
</linearGradient>

<linearGradient id="Gradient_2" gradientUnits="userSpaceOnUse" x1="260.85" y1="363.08750000000003" x2="260.85" y2="373.5125" spreadMethod="pad">
<stop  offset="0%" stop-color="#5BCD73"/>

<stop  offset="100%" stop-color="#295EF6"/>
</linearGradient>

<linearGradient id="Gradient_3" gradientUnits="userSpaceOnUse" x1="267.55" y1="363.08750000000003" x2="267.55" y2="373.5125" spreadMethod="pad">
<stop  offset="0%" stop-color="#5BCD73"/>

<stop  offset="100%" stop-color="#295EF6"/>
</linearGradient>

<linearGradient id="Gradient_4" gradientUnits="userSpaceOnUse" x1="276.1" y1="363.08750000000003" x2="276.1" y2="373.5125" spreadMethod="pad">
<stop  offset="0%" stop-color="#5BCD73"/>

<stop  offset="100%" stop-color="#295EF6"/>
</linearGradient>

<filter id="Filter_1" x="-20%" y="-20%" width="140%" height="140%" color-interpolation-filters="sRGB">
<feColorMatrix in="SourceGraphic" type="matrix" values="1 0 0 0 0 0 1 0 0 0 0 0 1 0 0 0 0 0 0.33 0" result="result1"/>
</filter>

<g id="Layer0_0_MEMBER_1_FILL">
<path fill="#FFFFFF" stroke="none" d="
M 360.15 109.95
Q 356.15 109.95 353.3 112.8 350.5 115.65 350.5 119.65
L 350.5 202.6
Q 350.5 206.6 353.3 209.45 356.15 212.3 360.15 212.3
L 475.8 212.3
Q 479.8 212.3 482.65 209.45 485.5 206.6 485.5 202.6
L 485.5 119.65
Q 485.5 115.65 482.65 112.8 479.8 109.95 475.8 109.95
L 360.15 109.95 Z"/>
</g>

<g id="Layer0_0_MEMBER_2_FILL">
<path fill="#FEF465" stroke="none" d="
M 360.15 109.95
Q 356.15 109.95 353.3 112.8 350.5 115.65 350.5 119.65
L 350.5 193.5 485.5 193.5 485.5 119.65
Q 485.5 115.65 482.65 112.8 479.8 109.95 475.8 109.95
L 360.15 109.95 Z"/>
</g>

<g id="Layer0_0_MEMBER_3_FILL">
<path fill="#FFFFFF" stroke="none" d="
M 364.3 120
L 364.3 193.5 471.65 193.5 471.65 120 364.3 120 Z"/>
</g>

<g id="Layer0_0_MEMBER_12_FILL">
<path fill="#272B33" stroke="none" d="
M 365 133.5
L 365 141.5 471 141.5 471 133.5 365 133.5 Z"/>
</g>

<g id="Layer0_0_MEMBER_14_FILL">
<path fill="#5BCD73" stroke="none" d="
M 364.65 141.5
L 364.65 176 471.3 176 471.3 141.5 364.65 141.5 Z"/>
</g>

<g id="Layer0_0_MEMBER_15_FILL">
<path fill="#5BCD73" stroke="none" d="
M 401.25 151.7
Q 398.15 151.7 395.95 153.9 393.75 156.1 393.75 159.2 393.75 162.3 395.95 164.5 398.15 166.7 401.25 166.7 404.35 166.7 406.55 164.5 408.75 162.3 408.75 159.2 408.75 156.1 406.55 153.9 404.35 151.7 401.25 151.7 Z"/>
</g>

<g id="Layer0_0_MEMBER_19_FILL">
<path fill="#295EF6" stroke="none" d="
M 397 185.1
Q 397 184.25 396.35 183.6 395.7 183 394.85 183
L 387.5 183
Q 386.65 183 386 183.6 385.4 184.25 385.4 185.1 385.4 185.95 386 186.6 386.65 187.25 387.5 187.25
L 394.85 187.25
Q 395.7 187.25 396.35 186.6 397 185.95 397 185.1 Z"/>
</g>

<g id="Layer0_0_MEMBER_20_FILL">
<path fill="#295EF6" stroke="none" d="
M 424.25 185.1
Q 424.25 184.25 423.65 183.6 423 183 422.15 183
L 414.8 183
Q 413.95 183 413.3 183.6 412.7 184.25 412.7 185.1 412.7 185.95 413.3 186.6 413.95 187.25 414.8 187.25
L 422.15 187.25
Q 423 187.25 423.65 186.6 424.25 185.95 424.25 185.1 Z"/>
</g>

<g id="Layer0_0_MEMBER_21_FILL">
<path fill="#295EF6" stroke="none" d="
M 443.6 183
Q 442.75 183 442.1 183.6 441.5 184.25 441.5 185.1 441.5 185.95 442.1 186.6 442.75 187.25 443.6 187.25
L 450.95 187.25
Q 451.8 187.25 452.45 186.6 453.05 185.95 453.05 185.1 453.05 184.25 452.45 183.6 451.8 183 450.95 183
L 443.6 183 Z"/>
</g>

<g id="iconos_otros_ai_Layer_1__Path__2_0_Layer0_0_FILL">
<path fill="#FFFFFF" stroke="none" d="
M 9.65 0
Q 5.65 0 2.8 2.85 0 5.7 0 9.7
L 0 83.55 114.5 83.55 9.65 0 Z"/>
</g>

<g id="Layer0_1_MEMBER_0_MEMBER_0_FILL">
<path fill="#295EF6" stroke="none" d="
M 419.75 363.5
L 423.6 372.5 447.65 372.5 430.8 336.2 419.75 363.5 Z"/>
</g>

<g id="Layer0_1_MEMBER_1_MEMBER_0_FILL">
<path fill="#295EF6" stroke="none" d="
M 414.95 372.5
L 418.8 363.5 407.75 336.2 390.9 372.5 414.95 372.5 Z"/>
</g>

<g id="Layer0_1_MEMBER_2_FILL">
<path fill="#5BCD73" stroke="none" d="
M 418.65 250.5
Q 416 252.25 412.6 256 405.9 263.55 402.4 273.75 391.2 306.4 416.65 353.4
L 422.55 353.4
Q 448 306.4 435.85 273.75 432.05 263.55 425 256
L 418.65 250.5 Z"/>
</g>

<g id="Layer0_1_MEMBER_3_FILL">
<path fill="#FFFFFF" stroke="none" d="
M 413.7 364
L 411.25 367.85
Q 409.1 372.6 410.7 376.8
L 411.85 375.8 413.25 379.55
Q 415.25 383.75 418.1 385.7
L 420.35 384.2
Q 422.85 382.4 423.95 380.85
L 426.55 383.35
Q 428.3 381.25 429.1 377.8 430.65 370.9 425.95 364
L 413.7 364 Z"/>
</g>

<g id="Layer0_1_MEMBER_4_FILL">
<path fill="#5BCD73" stroke="none" d="
M 427.65 362.95
L 425.65 353.4 413.95 353.4 411.95 362.95 427.65 362.95 Z"/>
</g>

<g id="Layer0_1_MEMBER_5_MEMBER_0_FILL">
<path fill="#FEF465" stroke="none" d="
M 413.7 363.35
L 411.25 367.4
Q 409.1 372.3 410.7 376.5
L 411.85 375.65 413.25 379.45
Q 415.25 383.7 418.1 385.65
L 420.35 384.15
Q 422.85 382.35 423.95 380.8
L 426.55 383
Q 428.3 381.1 429.1 377.65 430.65 370.8 425.95 363.35
L 413.7 363.35 Z"/>
</g>

<g id="Layer0_1_MEMBER_6_FILL">
<path fill="#FEF465" stroke="none" d="
M 427.85 296.55
Q 427.85 292.85 425.25 290.25 422.6 287.65 418.9 287.65 415.2 287.65 412.6 290.25 410 292.85 410 296.55 410 300.25 412.6 302.9 415.2 305.5 418.9 305.5 422.6 305.5 425.25 302.9 427.85 300.25 427.85 296.55 Z"/>
</g>

<g id="Layer0_1_MEMBER_7_FILL">
<path fill="#FEF465" stroke="none" d="
M 422.75 275.55
Q 422.75 274 421.6 272.85 420.5 271.75 418.9 271.75 417.35 271.75 416.2 272.85 415.1 274 415.1 275.55 415.1 277.15 416.2 278.3 417.3 279.4 418.9 279.4 420.5 279.4 421.6 278.3 422.75 277.15 422.75 275.55 Z"/>
</g>

<g id="Layer0_1_MEMBER_10_FILL">
<path fill="#FEF465" stroke="none" d="
M 414.85 319.05
L 414.85 321.15
Q 414.85 323.2 416.3 324.6 417.75 326.05 419.75 326.05 421.75 326.05 423.2 324.6 424.6 323.2 424.6 321.15
L 424.6 319.05
Q 424.6 317 423.2 315.6 421.75 314.15 419.75 314.15 417.75 314.15 416.3 315.6 414.85 317.05 414.85 319.05 Z"/>
</g>

<g id="Layer0_1_MEMBER_11_FILL">
<path fill="#272B33" stroke="none" d="
M 418.65 250.5
Q 411.6 257.4 410 259.5
L 428 259.5
Q 421.8 252.25 418.65 250.5 Z"/>
</g>

<g id="Layer0_1_MEMBER_12_MEMBER_0_FILL">
<path fill="#5BCD73" stroke="none" d="
M 381.2 384.3
Q 381.2 387.6 382.75 389.4 384.25 391.15 387.15 391.15 390.05 391.15 391.55 389.4 393.1 387.6 393.1 384.3 393.1 381 391.55 379.25 390.05 377.45 387.15 377.45 384.25 377.45 382.75 379.25 381.2 381 381.2 384.3
M 385.3 380.95
Q 385.85 379.95 387.15 379.95 388.45 379.95 389 380.95 389.6 382 389.6 384.3 389.6 386.6 389 387.6 388.45 388.65 387.15 388.65 385.85 388.65 385.3 387.6 384.7 386.6 384.7 384.3 384.7 382 385.3 380.95 Z"/>
</g>

<g id="Layer0_1_MEMBER_13_MEMBER_0_FILL">
<path fill="#5BCD73" stroke="none" d="
M 372.25 408.6
Q 370.7 410.4 370.7 413.65 370.7 416.95 372.25 418.75 373.8 420.5 376.7 420.5 379.55 420.5 381.1 418.75 382.65 416.95 382.65 413.65 382.65 410.4 381.1 408.6 379.55 406.85 376.7 406.85 373.8 406.85 372.25 408.6
M 378.55 410.35
Q 379.15 411.4 379.15 413.65 379.15 415.95 378.55 417 378 418 376.7 418 375.4 418 374.8 417 374.25 416 374.25 413.65 374.25 411.35 374.8 410.35 375.4 409.35 376.7 409.35 378 409.35 378.55 410.35 Z"/>
</g>

<g id="Layer0_1_MEMBER_14_MEMBER_0_FILL">
<path fill="#5BCD73" stroke="none" d="
M 415.15 418.75
Q 416.65 420.5 419.55 420.5 422.4 420.5 423.95 418.75 425.5 416.95 425.5 413.65 425.5 410.4 423.95 408.6 422.4 406.85 419.55 406.85 416.65 406.85 415.15 408.6 413.6 410.4 413.6 413.65 413.6 416.95 415.15 418.75
M 421.4 410.35
Q 422 411.4 422 413.65 422 415.95 421.4 417 420.85 418 419.55 418 418.25 418 417.7 417 417.1 415.95 417.1 413.65 417.1 411.4 417.7 410.35 418.25 409.35 419.55 409.35 420.85 409.35 421.4 410.35 Z"/>
</g>

<g id="Layer0_1_MEMBER_15_MEMBER_0_FILL">
<path fill="#5BCD73" stroke="none" d="
M 455.25 379.7
Q 452.35 379.7 450.8 381.5 449.25 383.25 449.25 386.55 449.25 389.85 450.8 391.65 452.35 393.4 455.25 393.4 458.1 393.4 459.65 391.65 461.15 389.85 461.15 386.55 461.15 383.25 459.65 381.5 458.1 379.7 455.25 379.7
M 453.35 383.2
Q 453.95 382.2 455.25 382.2 456.5 382.2 457.05 383.2 457.65 384.25 457.65 386.55 457.65 390.9 455.25 390.9 453.95 390.9 453.35 389.85 452.75 388.85 452.75 386.55 452.75 384.25 453.35 383.2 Z"/>
</g>

<g id="Layer0_1_MEMBER_16_MEMBER_0_FILL">
<path fill="#5BCD73" stroke="none" d="
M 485.6 394.2
Q 484.05 392.45 481.2 392.45 478.3 392.45 476.75 394.2 475.2 396 475.2 399.25 475.2 402.55 476.75 404.35 478.3 406.1 481.2 406.1 484.05 406.1 485.6 404.35 487.1 402.55 487.1 399.25 487.1 396 485.6 394.2
M 479.3 395.95
Q 479.9 394.95 481.2 394.95 482.5 394.95 483.05 395.95 483.65 397 483.65 399.25 483.65 401.55 483.05 402.6 482.5 403.6 481.2 403.6 479.9 403.6 479.3 402.6 478.7 401.55 478.7 399.25 478.7 396.95 479.3 395.95 Z"/>
</g>

<g id="Layer0_1_MEMBER_17_MEMBER_0_FILL">
<path fill="#295EF6" stroke="none" d="
M 399.5 412.2
L 402.9 412.2 402.9 398.7 397 398.7 397 401.45 399.5 401.45 399.5 412.2 Z"/>
</g>

<g id="Layer0_1_MEMBER_18_MEMBER_0_FILL">
<path fill="#295EF6" stroke="none" d="
M 361.35 385.5
L 355.45 385.5 355.45 388.25 357.9 388.25 357.9 398.95 361.35 398.95 361.35 385.5 Z"/>
</g>

<g id="Layer0_1_MEMBER_19_MEMBER_0_FILL">
<path fill="#295EF6" stroke="none" d="
M 436.2 389.4
L 430.3 389.4 430.3 392.15 432.8 392.15 432.8 402.85 436.2 402.85 436.2 389.4 Z"/>
</g>

<g id="Layer0_1_MEMBER_20_MEMBER_0_FILL">
<path fill="#295EF6" stroke="none" d="
M 457.75 420.4
L 461.15 420.4 461.15 406.95 455.25 406.95 455.25 409.7 457.75 409.7 457.75 420.4 Z"/>
</g>

<g id="iconos_otros_ai_Layer_1__Path__2_0_0_Layer0_0_FILL">
<path fill="#FFFFFF" stroke="none" d="
M 19.7 0.05
Q 17.05 1.75 13.75 5.5 7.1 13.05 3.7 23.2 -7.25 55.75 18.2 102.75
L 16.3 104.35 15.3 113 19.7 113 19.7 0.05 Z"/>
</g>

<g id="Layer0_2_MEMBER_0_FILL">
<path fill="#272B33" stroke="none" d="
M 265.8 296.7
Q 263.4 294.3 260 294.3
L 172.55 294.3
Q 169.15 294.3 166.7 296.7 164.3 299.15 164.3 302.55
L 164.3 364.4
Q 164.3 367.8 166.7 370.25 169.15 372.65 172.55 372.65
L 260 372.65
Q 263.4 372.65 265.8 370.25 268.2 367.8 268.2 364.4
L 268.2 302.55
Q 268.2 299.15 265.8 296.7 Z"/>
</g>

<g id="Layer0_2_MEMBER_1_FILL">
<path fill="#295EF6" stroke="none" d="
M 175.6 301.3
Q 174.5 301.3 173.75 302.1 173 302.85 173 303.95
L 173 362.35
Q 173 363.45 173.75 364.2 174.5 365 175.6 365
L 257.1 365
Q 258.2 365 258.95 364.2 259.75 363.45 259.75 362.35
L 259.75 303.95
Q 259.75 302.85 258.95 302.1 258.2 301.3 257.1 301.3
L 175.6 301.3 Z"/>
</g>

<g id="Layer0_2_MEMBER_4_FILL">
<path fill="#FFFFFF" stroke="none" d="
M 170 311.9
Q 170 311.35 169.6 310.95 169.2 310.55 168.65 310.55 168.1 310.55 167.7 310.95 167.3 311.35 167.3 311.9 167.3 312.45 167.7 312.85 168.1 313.25 168.65 313.25 169.2 313.25 169.6 312.85 170 312.45 170 311.9 Z"/>
</g>

<g id="Mask_iconos_otros_ai_Layer_1__Clip_Group__0_2_MASK_0_FILL">
<path fill="#FFFFFF" stroke="none" d="
M 86.75 2.65
Q 86.75 1.55 85.95 0.8 85.2 0 84.1 0
L 2.6 0
Q 1.5 0 0.75 0.8 0 1.55 0 2.65
L 0 61.05
Q 0 62.15 0.75 62.9 1.5 63.7 2.6 63.7
L 84.1 63.7
Q 85.2 63.7 85.95 62.9 86.75 62.15 86.75 61.05
L 86.75 2.65 Z"/>
</g>

<g id="iconos_otros_ai_Layer_1__Clip_Group__0_Layer2_0_MEMBER_0_FILL">
<path fill="#5BCD73" stroke="none" d="
M 55.3 14.7
Q 50.1 9.4 43.05 9.4 36 9.4 30.85 14.7 25.8 19.85 25.8 26.7
L 60.35 26.7
Q 60.35 19.85 55.3 14.7 Z"/>
</g>

<g id="iconos_otros_ai_Layer_1__Clip_Group__0_Layer2_0_MEMBER_1_FILL">
<path fill="#5BCD73" stroke="none" d="
M 25.8 51.9
Q 25.8 53.9 27.2 55.3 28.6 56.7 30.6 56.7
L 55.55 56.7
Q 57.55 56.7 58.95 55.3 60.35 53.9 60.35 51.9
L 60.35 28.4 25.8 28.4 25.8 51.9 Z"/>
</g>

<g id="iconos_otros_ai_Layer_1__Clip_Group__0_Layer2_0_MEMBER_2_FILL">
<path fill="#5BCD73" stroke="none" d="
M 36.9 69.4
Q 38.5 69.4 39.6 68.3 40.7 67.15 40.7 65.55
L 40.7 57.15
Q 40.7 55.55 39.6 54.4 38.5 53.3 36.9 53.3 35.3 53.3 34.15 54.4 33.05 55.55 33.05 57.15
L 33.05 65.55
Q 33.05 67.15 34.15 68.3 35.3 69.4 36.9 69.4 Z"/>
</g>

<g id="iconos_otros_ai_Layer_1__Clip_Group__0_Layer2_0_MEMBER_3_FILL">
<path fill="#5BCD73" stroke="none" d="
M 53.55 57.15
Q 53.55 55.55 52.4 54.4 51.3 53.3 49.7 53.3 48.1 53.3 46.95 54.4 45.85 55.55 45.85 57.15
L 45.85 65.55
Q 45.85 67.15 46.95 68.3 48.1 69.4 49.7 69.4 51.3 69.4 52.4 68.3 53.55 67.15 53.55 65.55
L 53.55 57.15 Z"/>
</g>

<g id="iconos_otros_ai_Layer_1__Clip_Group__0_Layer2_0_MEMBER_4_FILL">
<path fill="#5BCD73" stroke="none" d="
M 69.45 47.45
L 69.45 32.25
Q 69.45 30.65 68.35 29.5 67.25 28.4 65.65 28.4 64.05 28.4 62.9 29.5 61.8 30.65 61.8 32.25
L 61.8 47.45
Q 61.8 49.05 62.9 50.2 64.05 51.3 65.65 51.3 67.25 51.3 68.35 50.2 69.45 49.05 69.45 47.45 Z"/>
</g>

<g id="iconos_otros_ai_Layer_1__Clip_Group__0_Layer2_0_MEMBER_5_FILL">
<path fill="#5BCD73" stroke="none" d="
M 24.5 47.45
L 24.5 32.25
Q 24.5 30.65 23.35 29.5 22.25 28.4 20.65 28.4 19.05 28.4 17.95 29.5 16.8 30.65 16.8 32.25
L 16.8 47.45
Q 16.8 49.05 17.95 50.2 19.05 51.3 20.65 51.3 22.25 51.3 23.35 50.2 24.5 49.05 24.5 47.45 Z"/>
</g>

<g id="iconos_otros_ai_Layer_1__Clip_Group__0_Layer2_0_MEMBER_8_FILL">
<path fill="#295EF6" stroke="none" d="
M 49.65 17.95
Q 49.1 18.5 49.1 19.2 49.1 19.95 49.65 20.5 50.15 21 50.9 21 51.65 21 52.2 20.5 52.7 19.95 52.7 19.2 52.7 18.5 52.2 17.95 51.65 17.45 50.9 17.45 50.15 17.45 49.65 17.95 Z"/>
</g>

<g id="iconos_otros_ai_Layer_1__Clip_Group__0_Layer2_0_MEMBER_9_FILL">
<path fill="#295EF6" stroke="none" d="
M 34.3 17.95
Q 33.75 18.5 33.75 19.2 33.75 19.95 34.3 20.5 34.8 21 35.55 21 36.25 21 36.8 20.5 37.3 19.95 37.3 19.2 37.3 18.5 36.8 17.95 36.25 17.45 35.55 17.45 34.8 17.45 34.3 17.95 Z"/>
</g>

<g id="iconos_otros_ai_Layer_1__Path__9_0_Layer0_0_FILL">
<path fill="#FFFFFF" stroke="none" d="
M 0 62.45
L 53 0 0 0 0 62.45 Z"/>
</g>

<g id="Layer0_2_MEMBER_8_FILL">
<path fill="#FFFFFF" stroke="none" d="
M 290 341.7
Q 290 340 288.75 338.75 287.55 337.55 285.8 337.55
L 253.25 337.55
Q 251.55 337.55 250.3 338.75 249.1 340 249.1 341.7
L 249.1 399.6
Q 249.1 401.35 250.3 402.55 251.55 403.75 253.25 403.75
L 285.8 403.75
Q 287.55 403.75 288.75 402.55 289.95 401.35 289.95 399.6
L 290 341.7 Z"/>
</g>

<g id="Layer0_2_MEMBER_9_FILL">
<path fill="#5BCD73" stroke="none" d="
M 289.2 346
Q 288.45 345.2 287.35 345.2
L 251.75 345.2
Q 250.65 345.2 249.9 346 249.1 346.75 249.1 347.85
L 249.1 392.5
Q 249.1 393.6 249.9 394.35 250.65 395.15 251.75 395.15
L 287.35 395.15
Q 288.45 395.15 289.2 394.35 290 393.6 290 392.5
L 290 347.85
Q 290 346.75 289.2 346 Z"/>
</g>

<g id="iconos_otros_ai_Layer_1__Path__5_0_Layer0_0_FILL">
<path fill="#FFFFFF" stroke="none" d="
M 0 49.95
L 40.9 0 0 0 0 49.95 Z"/>
</g>

<g id="Layer0_2_MEMBER_12_FILL">
<path fill="#FFFFFF" stroke="none" d="
M 280.8 341.5
Q 281.5 341.5 281.5 340.8 281.5 340.1 280.8 340.1 280.1 340.1 280.1 340.8 280.1 341.5 280.8 341.5 Z"/>
</g>

<g id="Layer0_2_MEMBER_13_FILL">
<path fill="#272B33" stroke="none" d="
M 272.6 399.4
Q 272.6 398.15 271.7 397.25 270.8 396.35 269.55 396.35 268.3 396.35 267.4 397.25 266.5 398.15 266.5 399.4 266.5 400.7 267.4 401.6 268.3 402.5 269.55 402.5 270.8 402.5 271.7 401.6 272.6 400.65 272.6 399.4 Z"/>
</g>

<g id="Layer0_2_MEMBER_14_FILL">
<path fill="url(#Gradient_1)" stroke="none" d="
M 279.9 357.8
Q 278 355.85 275.25 355.85
L 263.2 355.85
Q 260.45 355.85 258.55 357.8 256.6 359.7 256.6 362.45
L 256.6 374.5
Q 256.6 377.25 258.55 379.15 260.45 381.1 263.2 381.1
L 275.25 381.1
Q 278 381.1 279.9 379.15 281.85 377.25 281.85 374.5
L 281.85 362.45
Q 281.85 359.7 279.9 357.8 Z"/>
</g>

<g id="Layer0_2_MEMBER_15_MEMBER_0_FILL">
<path fill="url(#Gradient_2)" stroke="none" d="
M 261.5 366.35
L 260.25 366.35 260.25 373.35 261.5 373.35 261.5 366.35
M 260.25 364.8
Q 260.45 365.05 260.85 365.05 261.25 365.05 261.45 364.8 261.7 364.55 261.7 364.25 261.7 364 261.45 363.65 261.3 363.45 260.9 363.45 260.5 363.45 260.3 363.65 260.05 364 260.05 364.25 260.05 364.5 260.25 364.8 Z"/>
</g>

<g id="Layer0_2_MEMBER_15_MEMBER_1_FILL">
<path fill="url(#Gradient_3)" stroke="none" d="
M 270.8 364.85
Q 270.2 364.15 269.4 363.8 268.65 363.45 267.6 363.45 266.55 363.45 265.8 363.8 264.95 364.2 264.35 364.85 263.75 365.5 263.45 366.45 263.1 367.35 263.1 368.55 263.1 369.7 263.4 370.6 263.7 371.45 264.3 372.15 264.85 372.75 265.7 373.15 266.45 373.5 267.45 373.5
L 267.5 373.5
Q 268.45 373.5 269.25 373.2 270.1 372.8 270.65 372.2 271.3 371.6 271.65 370.6 272 369.7 272 368.4 272 367.3 271.7 366.4 271.4 365.45 270.8 364.85
M 266.2 364.8
Q 266.8 364.5 267.55 364.5 268.4 364.5 268.9 364.8 269.55 365.2 269.9 365.75 270.25 366.25 270.5 367 270.65 367.75 270.65 368.45 270.65 369.35 270.45 370 270.25 370.65 269.85 371.3 269.45 371.85 268.85 372.15 268.35 372.5 267.55 372.5 266.75 372.5 266.2 372.15 265.6 371.8 265.25 371.3 264.8 370.7 264.65 370 264.4 369.25 264.4 368.55 264.4 368 264.6 367 264.85 366.25 265.2 365.7 265.55 365.2 266.2 364.8 Z"/>
</g>

<g id="Layer0_2_MEMBER_15_MEMBER_2_FILL">
<path fill="url(#Gradient_4)" stroke="none" d="
M 275.05 365
Q 275.25 364.8 275.6 364.65 276 364.5 276.45 364.5
L 277.6 364.65 278.3 364.95 278.65 363.95
Q 278.3 363.75 277.75 363.6 277.25 363.45 276.5 363.45 275.75 363.45 275.2 363.65 274.5 363.9 274.2 364.2 273.8 364.5 273.55 365.05 273.35 365.45 273.35 366.1 273.35 367.15 274.05 367.8 274.85 368.55 275.9 368.85 276.9 369.25 277.3 369.7 277.75 370.15 277.75 370.8 277.75 371.55 277.2 372 276.7 372.45 275.7 372.45 275.05 372.45 274.45 372.3
L 273.45 371.8 273.15 372.9 274.2 373.35 275.6 373.5
Q 276.55 373.5 277.15 373.3 277.65 373.1 278.2 372.65 278.6 372.3 278.8 371.75 279 371.35 279 370.7 279 370.15 278.85 369.75 278.7 369.35 278.4 368.95
L 277.65 368.35 276.55 367.85
Q 275.8 367.6 275.05 367.05 274.6 366.7 274.6 365.95
L 274.7 365.45 275.05 365 Z"/>
</g>

<path id="Layer0_0_MEMBER_0_1_STROKES" stroke="#272B33" stroke-width="3" stroke-linejoin="round" stroke-linecap="round" fill="none" d="
M 113.57426757812499 152.8220703125
L 113.57426757812499 160.69374999999997
Q 113.57426757812499 170.53334960937497 107.71850585937494 178.45302734374997
L 104.31064453125003 183.01284179687497
Q 103.35068359375003 184.35678710937498 104.07065429687503 185.8447265625 104.83862304687494 187.3806640625 106.51855468749994 187.3806640625
L 150.820751953125 187.3806640625
Q 152.50068359375 187.3806640625 153.26865234375003 185.8447265625 154.03662109374994 184.35678710937498 152.9806640625 183.01284179687497
L 149.380810546875 178.1650390625
Q 143.333056640625 170.19736328124998 143.333056640625 160.21376953124997
L 143.333056640625 152.8220703125 113.57426757812499 152.8220703125 Z"/>

<path id="Layer0_0_MEMBER_3_1_STROKES" stroke="#272B33" stroke-width="3" stroke-linejoin="round" stroke-linecap="round" fill="none" d="
M 179.71557617187494 143.70244140625
L 76.66376953125001 143.70244140625 76.66376953125001 73.1453125 179.71557617187494 73.1453125 179.71557617187494 143.70244140625 Z"/>

<path id="Layer0_0_MEMBER_4_1_STROKES" stroke="#272B33" stroke-width="3" stroke-linejoin="round" stroke-linecap="round" fill="none" d="
M 179.71557617187494 79.72104492187499
L 76.66376953125001 79.72104492187499"/>

<path id="Layer0_0_MEMBER_5_1_STROKES" stroke="#272B33" stroke-width="3" stroke-linejoin="round" stroke-linecap="round" fill="none" d="
M 99.22285156250001 73.1453125
L 94.61503906249999 79.04907226562501"/>

<path id="Layer0_0_MEMBER_6_1_STROKES" stroke="#272B33" stroke-width="3" stroke-linejoin="round" stroke-linecap="round" fill="none" d="
M 112.51831054687494 73.1453125
L 117.17412109374999 79.04907226562501"/>

<path id="Layer0_0_MEMBER_7_1_STROKES" stroke="#272B33" stroke-width="3" stroke-linejoin="round" stroke-linecap="round" fill="none" d="
M 129.79760742187494 73.1453125
L 134.45341796875 79.04907226562501"/>

<path id="Layer0_0_MEMBER_8_MEMBER_0_1_STROKES" stroke="#272B33" stroke-width="1" stroke-linejoin="round" stroke-linecap="round" fill="none" d="
M 81.03159179687503 75.64121093749999
L 82.71152343750003 77.17714843750001"/>

<path id="Layer0_0_MEMBER_8_MEMBER_1_1_STROKES" stroke="#272B33" stroke-width="1" stroke-linejoin="round" stroke-linecap="round" fill="none" d="
M 82.71152343750003 75.64121093749999
L 81.03159179687503 77.17714843750001"/>

<path id="Layer0_0_MEMBER_9_1_STROKES" stroke="#272B33" stroke-width="3" stroke-linejoin="round" stroke-linecap="round" fill="none" d="
M 77.33574218749999 86.10478515625
L 179.0916015625 86.10478515625"/>

<path id="Layer0_0_MEMBER_10_1_STROKES" stroke="#272B33" stroke-width="3" stroke-linejoin="round" stroke-linecap="round" fill="none" d="
M 86.45537109374999 80.825
L 86.45537109374999 85.6248046875"/>

<path id="Layer0_0_MEMBER_11_1_STROKES" stroke="#272B33" stroke-width="3" stroke-linejoin="round" stroke-linecap="round" fill="none" d="
M 171.89189453125 80.825
L 171.89189453125 85.6248046875"/>

<path id="Layer0_0_MEMBER_12_1_STROKES" stroke="#272B33" stroke-width="3" stroke-linejoin="round" stroke-linecap="round" fill="none" d="
M 179.0916015625 93.78447265625
L 77.33574218749999 93.78447265625 77.33574218749999 86.10478515625 179.0916015625 86.10478515625 179.0916015625 93.78447265625 Z"/>

<path id="Layer0_0_MEMBER_13_MEMBER_0_1_STROKES" stroke="#FFFFFF" stroke-width="3" stroke-linejoin="round" stroke-linecap="round" fill="none" d="
M 168.53203125 89.94462890625
L 173.3318359375 89.94462890625"/>

<path id="Layer0_0_MEMBER_14_1_STROKES" stroke="#272B33" stroke-width="3" stroke-linejoin="round" stroke-linecap="round" fill="none" d="
M 179.37958984375 126.903125
L 76.99975585937494 126.903125 76.99975585937494 93.78447265625 179.37958984375 93.78447265625 179.37958984375 126.903125 Z"/>

<path id="Layer0_0_MEMBER_15_1_STROKES" stroke="#272B33" stroke-width="3" stroke-linejoin="round" stroke-linecap="round" fill="none" d="
M 119.33403320312499 110.77578124999998
Q 119.33403320312499 113.75166015625003 117.22211914062501 115.86357421875 115.11020507812503 117.97548828124998 112.13432617187499 117.97548828124998 109.15844726562494 117.97548828124998 107.04653320312497 115.86357421875 104.93461914062499 113.75166015625003 104.93461914062499 110.77578124999998 104.93461914062499 107.79990234374999 107.04653320312497 105.68798828125001 109.15844726562494 103.57607421874998 112.13432617187499 103.57607421874998 115.11020507812503 103.57607421874998 117.22211914062501 105.68798828125001 119.33403320312499 107.79990234374999 119.33403320312499 110.77578124999998 Z"/>

<path id="Layer0_0_MEMBER_16_MEMBER_0_1_STROKES" stroke="#272B33" stroke-width="3" stroke-linejoin="round" stroke-linecap="round" fill="none" d="
M 132.053515625 104.34404296875
L 138.7732421875 104.34404296875"/>

<path id="Layer0_0_MEMBER_17_MEMBER_0_1_STROKES" stroke="#272B33" stroke-width="3" stroke-linejoin="round" stroke-linecap="round" fill="none" d="
M 132.053515625 110.10380859375
L 153.17265625 110.10380859375"/>

<path id="Layer0_0_MEMBER_18_MEMBER_0_1_STROKES" stroke="#272B33" stroke-width="3" stroke-linejoin="round" stroke-linecap="round" fill="none" d="
M 132.053515625 116.82353515625
L 153.17265625 116.82353515625"/>

<path id="Layer0_0_MEMBER_19_1_STROKES" stroke="#295EF6" stroke-width="1" stroke-linejoin="miter" stroke-linecap="butt" stroke-miterlimit="10" fill="none" d="
M 105.99057617187503 137.702685546875
L 98.93486328124999 137.702685546875
Q 98.11889648437494 137.702685546875 97.49492187499999 137.07871093749998 96.91894531249994 136.45473632812497 96.91894531249994 135.63876953124998 96.91894531249994 134.822802734375 97.49492187499999 134.19882812499998 98.11889648437494 133.6228515625 98.93486328124999 133.6228515625
L 105.99057617187503 133.6228515625
Q 106.80654296874997 133.6228515625 107.43051757812503 134.19882812499998 108.05449218749999 134.822802734375 108.05449218749999 135.63876953124998 108.05449218749999 136.45473632812497 107.43051757812503 137.07871093749998 106.80654296874997 137.702685546875 105.99057617187503 137.702685546875 Z"/>

<path id="Layer0_0_MEMBER_20_1_STROKES" stroke="#295EF6" stroke-width="1" stroke-linejoin="miter" stroke-linecap="butt" stroke-miterlimit="10" fill="none" d="
M 132.19750976562494 137.702685546875
L 125.14179687500001 137.702685546875
Q 124.32583007812497 137.702685546875 123.70185546875001 137.07871093749998 123.12587890624997 136.45473632812497 123.12587890624997 135.63876953124998 123.12587890624997 134.822802734375 123.70185546875001 134.19882812499998 124.32583007812497 133.6228515625 125.14179687500001 133.6228515625
L 132.19750976562494 133.6228515625
Q 133.0134765625 133.6228515625 133.63745117187494 134.19882812499998 134.213427734375 134.822802734375 134.213427734375 135.63876953124998 134.213427734375 136.45473632812497 133.63745117187494 137.07871093749998 133.0134765625 137.702685546875 132.19750976562494 137.702685546875 Z"/>

<path id="Layer0_0_MEMBER_21_1_STROKES" stroke="#295EF6" stroke-width="1" stroke-linejoin="miter" stroke-linecap="butt" stroke-miterlimit="10" fill="none" d="
M 159.84438476562497 137.702685546875
L 152.78867187500003 137.702685546875
Q 151.972705078125 137.702685546875 151.34873046875003 137.07871093749998 150.77275390625 136.45473632812497 150.77275390625 135.63876953124998 150.77275390625 134.822802734375 151.34873046875003 134.19882812499998 151.972705078125 133.6228515625 152.78867187500003 133.6228515625
L 159.84438476562497 133.6228515625
Q 160.6603515625 133.6228515625 161.28432617187497 134.19882812499998 161.860302734375 134.822802734375 161.860302734375 135.63876953124998 161.860302734375 136.45473632812497 161.28432617187497 137.07871093749998 160.6603515625 137.702685546875 159.84438476562497 137.702685546875 Z"/>

<path id="Layer0_0_MEMBER_23_1_STROKES" stroke="#272B33" stroke-width="3" stroke-linejoin="round" stroke-linecap="round" fill="none" d="
M 183.6994140625 161.74970703125
L 72.67993164062494 161.74970703125
Q 68.84008789062494 161.74970703125 66.10419921875001 159.01381835937497 63.41630859374999 156.27792968749998 63.41630859374999 152.43808593749998
L 63.41630859374999 72.80932617187501
Q 63.41630859374999 68.96948242187501 66.10419921875001 66.23359375 68.84008789062494 63.49770507812501 72.67993164062494 63.49770507812501
L 183.6994140625 63.49770507812501
Q 187.5392578125 63.49770507812501 190.27514648437494 66.23359375 193.01103515625 68.96948242187501 193.01103515625 72.80932617187501
L 193.01103515625 152.43808593749998
Q 193.01103515625 156.27792968749998 190.27514648437494 159.01381835937497 187.5392578125 161.74970703125 183.6994140625 161.74970703125 Z"/>

<path id="Layer0_0_MEMBER_24_1_STROKES" stroke="#272B33" stroke-width="3" stroke-linejoin="round" stroke-linecap="round" fill="none" d="
M 192.5310546875 143.70244140625
L 64.85624999999999 143.70244140625"/>

<path id="Layer0_1_MEMBER_0_MEMBER_1_1_STROKES" stroke="#272B33" stroke-width="3" stroke-linejoin="round" stroke-linecap="round" fill="none" d="
M 966.7511718750001 420.0388671875
L 982.926513671875 454.88544921875 959.8394531250001 454.88544921875 956.143603515625 446.24580078125"/>

<path id="Layer0_1_MEMBER_1_MEMBER_1_1_STROKES" stroke="#272B33" stroke-width="3" stroke-linejoin="round" stroke-linecap="round" fill="none" d="
M 944.624072265625 420.0388671875
L 928.44873046875 454.88544921875 951.535791015625 454.88544921875 955.2316406250001 446.24580078125"/>

<path id="Layer0_1_MEMBER_2_1_STROKES" stroke="#272B33" stroke-width="3" stroke-linejoin="round" stroke-linecap="round" fill="none" d="
M 958.8314941406251 436.55019531249997
Q 983.2625 391.43203124999997 971.5989746093751 360.089306640625 967.9511230468751 350.29770507812503 961.1833984375 343.05
L 955.087646484375 337.77021484375
Q 952.54375 339.450146484375 949.2798828125001 343.05 942.84814453125 350.29770507812503 939.48828125 360.089306640625 928.73671875 391.43203124999997 953.167724609375 436.55019531249997
L 958.8314941406251 436.55019531249997 Z"/>

<path id="Layer0_1_MEMBER_4_1_STROKES" stroke="#272B33" stroke-width="3" stroke-linejoin="round" stroke-linecap="round" fill="none" d="
M 963.727294921875 445.717822265625
L 948.655908203125 445.717822265625 950.575830078125 436.55019531249997 961.807373046875 436.55019531249997 963.727294921875 445.717822265625 Z"/>

<path id="Layer0_1_MEMBER_5_MEMBER_1_1_STROKES" stroke="#272B33" stroke-width="3" stroke-linejoin="round" stroke-linecap="round" fill="none" d="
M 950.33583984375 446.10180664062506
L 947.983935546875 449.98964843749997
Q 945.9200195312501 454.69345703125003 947.45595703125 458.72529296875
L 948.5599121093751 457.90932617187497 949.903857421875 461.557177734375
Q 951.823779296875 465.63701171875 954.5596679687501 467.50893554687497
L 956.7195800781251 466.06899414062497
Q 959.1194824218751 464.34106445312506 960.175439453125 462.85312500000003
L 962.6713378906251 464.9650390625
Q 964.3512695312501 463.14111328125006 965.1192382812501 459.82924804687497 966.607177734375 453.25351562500003 962.095361328125 446.10180664062506"/>

<path id="Layer0_1_MEMBER_6_1_STROKES" stroke="#272B33" stroke-width="3" stroke-linejoin="round" stroke-linecap="round" fill="none" d="
M 963.9192871093751 381.97641601562503
Q 963.9192871093751 385.528271484375 961.423388671875 388.07216796874997 958.8794921875001 390.56806640625 955.32763671875 390.56806640625 951.77578125 390.56806640625 949.2798828125001 388.07216796874997 946.783984375 385.528271484375 946.783984375 381.97641601562503 946.783984375 378.42456054687506 949.2798828125001 375.928662109375 951.77578125 373.43276367187497 955.32763671875 373.43276367187497 958.8794921875001 373.43276367187497 961.423388671875 375.928662109375 963.9192871093751 378.42456054687506 963.9192871093751 381.97641601562503 Z"/>

<path id="Layer0_1_MEMBER_7_1_STROKES" stroke="#272B33" stroke-width="3" stroke-linejoin="round" stroke-linecap="round" fill="none" d="
M 959.023486328125 361.81723632812503
Q 959.023486328125 363.35317382812497 957.9195312500001 364.45712890625003 956.86357421875 365.51308593749997 955.32763671875 365.51308593749997 953.7916992187501 365.51308593749997 952.7357421875 364.45712890625003 951.6797851562501 363.35317382812497 951.6797851562501 361.81723632812503 951.6797851562501 360.329296875 952.7357421875 359.22534179687506 953.8396972656251 358.169384765625 955.32763671875 358.169384765625 956.86357421875 358.169384765625 957.9195312500001 359.22534179687506 959.023486328125 360.329296875 959.023486328125 361.81723632812503 Z"/>

<path id="Layer0_1_MEMBER_8_1_STROKES" stroke="#272B33" stroke-width="3" stroke-linejoin="round" stroke-linecap="round" fill="none" d="
M 962.04736328125 430.358447265625
L 972.942919921875 454.88544921875"/>

<path id="Layer0_1_MEMBER_9_1_STROKES" stroke="#272B33" stroke-width="3" stroke-linejoin="round" stroke-linecap="round" fill="none" d="
M 948.943896484375 430.358447265625
L 938.04833984375 454.837451171875"/>

<path id="Layer0_1_MEMBER_10_1_STROKES" stroke="#272B33" stroke-width="3" stroke-linejoin="round" stroke-linecap="round" fill="none" d="
M 956.143603515625 410.29526367187503
Q 954.223681640625 410.29526367187503 952.8317382812501 408.90332031250006 951.4397949218751 407.559375 951.4397949218751 405.59145507812497
L 951.4397949218751 403.57553710937503
Q 951.4397949218751 401.65561523437503 952.8317382812501 400.26367187500006 954.223681640625 398.87172851562497 956.143603515625 398.87172851562497 958.063525390625 398.87172851562497 959.45546875 400.26367187500006 960.7994140625001 401.6076171875 960.7994140625001 403.57553710937503
L 960.7994140625001 405.59145507812497
Q 960.7994140625001 407.559375 959.45546875 408.90332031250006 958.063525390625 410.29526367187503 956.143603515625 410.29526367187503 Z"/>

<path id="Layer0_1_MEMBER_11_1_STROKES" stroke="#272B33" stroke-width="3" stroke-linejoin="round" stroke-linecap="round" fill="none" d="
M 946.783984375 346.40986328125
L 964.06328125 346.40986328125
Q 958.1115234375001 339.450146484375 955.087646484375 337.77021484375 948.3199218750001 344.39394531249997 946.783984375 346.40986328125 Z"/>

<path id="Layer0_1_MEMBER_17_MEMBER_0_1_STROKES" stroke="#295EF6" stroke-width="1" stroke-linejoin="miter" stroke-linecap="butt" stroke-miterlimit="10" fill="none" d="
M 936.70439453125 492.9958984375
L 936.70439453125 482.676318359375 934.3044921875 482.676318359375 934.3044921875 480.03642578125 939.96826171875 480.03642578125 939.96826171875 492.9958984375 936.70439453125 492.9958984375 Z"/>

<path id="Layer0_1_MEMBER_18_MEMBER_0_1_STROKES" stroke="#295EF6" stroke-width="1" stroke-linejoin="miter" stroke-linecap="butt" stroke-miterlimit="10" fill="none" d="
M 896.77001953125 480.276416015625
L 896.77001953125 470.004833984375 894.418115234375 470.004833984375 894.418115234375 467.36494140625 900.0818847656251 467.36494140625 900.0818847656251 480.276416015625 896.77001953125 480.276416015625 Z"/>

<path id="Layer0_1_MEMBER_19_MEMBER_0_1_STROKES" stroke="#295EF6" stroke-width="1" stroke-linejoin="miter" stroke-linecap="butt" stroke-miterlimit="10" fill="none" d="
M 968.6710937500001 484.02026367187506
L 968.6710937500001 473.74868164062497 966.2711914062501 473.74868164062497 966.2711914062501 471.10878906249997 971.9349609375 471.10878906249997 971.9349609375 484.02026367187506 968.6710937500001 484.02026367187506 Z"/>

<path id="Layer0_1_MEMBER_20_MEMBER_0_1_STROKES" stroke="#295EF6" stroke-width="1" stroke-linejoin="miter" stroke-linecap="butt" stroke-miterlimit="10" fill="none" d="
M 992.622119140625 500.86757812499997
L 992.622119140625 490.59599609375 990.222216796875 490.59599609375 990.222216796875 487.956103515625 995.885986328125 487.956103515625 995.885986328125 500.86757812499997 992.622119140625 500.86757812499997 Z"/>

<path id="iconos_otros_ai_Layer_1__Path__2_0_0_Layer0_0_1_STROKES" stroke="#FFFFFF" stroke-width="1" stroke-linejoin="miter" stroke-linecap="butt" stroke-miterlimit="10" fill="none" d="
M 18.2 102.75
Q -7.25 55.75 3.7 23.2 7.1 13.05 13.75 5.5 17.05 1.75 19.7 0.05
L 19.7 113 15.3 113 16.3 104.35 18.2 102.75 Z"/>

<path id="Layer0_1_MEMBER_22_1_STROKES" stroke="#272B33" stroke-width="3" stroke-linejoin="round" stroke-linecap="round" fill="none" d="
M 958.8314941406251 436.55019531249997
Q 983.2625 391.43203124999997 971.5989746093751 360.089306640625 967.9511230468751 350.29770507812503 961.1833984375 343.05
L 955.087646484375 337.77021484375
Q 952.54375 339.450146484375 949.2798828125001 343.05 942.84814453125 350.29770507812503 939.48828125 360.089306640625 928.73671875 391.43203124999997 953.167724609375 436.55019531249997
L 958.8314941406251 436.55019531249997 Z"/>

<path id="Layer0_1_MEMBER_23_1_STROKES" stroke="#272B33" stroke-width="3" stroke-linejoin="round" stroke-linecap="round" fill="none" d="
M 963.727294921875 445.717822265625
L 948.655908203125 445.717822265625 950.575830078125 436.55019531249997 961.807373046875 436.55019531249997 963.727294921875 445.717822265625 Z"/>

<path id="Layer0_2_MEMBER_0_1_STROKES" stroke="#272B33" stroke-width="3" stroke-linejoin="round" stroke-linecap="round" fill="none" d="
M 190.95628356933594 361.2261878967285
L 190.95628356933594 432.4750549316406
Q 190.95628356933594 436.3917266845703 188.1915740966797 439.2140342712402 185.42686462402344 441.9787437438965 181.51019287109375 441.9787437438965
L 80.77109146118164 441.9787437438965
Q 76.85441970825195 441.9787437438965 74.03211212158203 439.2140342712402 71.26740264892578 436.3917266845703 71.26740264892578 432.4750549316406
L 71.26740264892578 361.2261878967285
Q 71.26740264892578 357.3095161437988 74.03211212158203 354.4872085571289 76.85441970825195 351.72249908447264 80.77109146118164 351.72249908447264
L 181.51019287109375 351.72249908447264
Q 185.42686462402344 351.72249908447264 188.1915740966797 354.4872085571289 190.95628356933594 357.3095161437988 190.95628356933594 361.2261878967285 Z"/>

<path id="Layer0_2_MEMBER_2_MEMBER_0_1_STROKES" stroke="#FFFFFF" stroke-width="3" stroke-linejoin="round" stroke-linecap="round" fill="none" d="
M 76.10564422607422 390.5436279296875
L 76.10564422607422 402.06325073242186"/>

<path id="Layer0_2_MEMBER_3_MEMBER_0_1_STROKES" stroke="#FFFFFF" stroke-width="3" stroke-linejoin="round" stroke-linecap="round" fill="none" d="
M 185.54206085205078 395.15147705078124
L 185.54206085205078 397.4554016113281"/>

<path id="iconos_otros_ai_Layer_1__Clip_Group__0_Layer2_0_MEMBER_6_MEMBER_0_1_STROKES" stroke="#5BCD73" stroke-width="1" stroke-linejoin="miter" stroke-linecap="round" stroke-miterlimit="10" fill="none" d="
M 54.25 7.45
L 50.55 14"/>

<path id="iconos_otros_ai_Layer_1__Clip_Group__0_Layer2_0_MEMBER_7_MEMBER_0_1_STROKES" stroke="#5BCD73" stroke-width="1" stroke-linejoin="miter" stroke-linecap="round" stroke-miterlimit="10" fill="none" d="
M 31.75 7.45
L 35.45 14"/>

<path id="Layer0_2_MEMBER_7_1_STROKES" stroke="#272B33" stroke-width="3" stroke-linejoin="round" stroke-linecap="round" fill="none" d="
M 178.16950225830078 433.1662322998047
L 84.28457641601562 433.1662322998047
Q 83.01741790771484 433.1662322998047 82.15344619750977 432.2446624755859 81.28947448730469 431.38069076538085 81.28947448730469 430.11353225708007
L 81.28947448730469 362.8389350891113
Q 81.28947448730469 361.57177658081054 82.15344619750977 360.70780487060546 83.01741790771484 359.7862350463867 84.28457641601562 359.7862350463867
L 178.16950225830078 359.7862350463867
Q 179.43666076660156 359.7862350463867 180.30063247680664 360.70780487060546 181.2222023010254 361.57177658081054 181.2222023010254 362.8389350891113
L 181.2222023010254 430.11353225708007
Q 181.2222023010254 431.38069076538085 180.30063247680664 432.2446624755859 179.43666076660156 433.1662322998047 178.16950225830078 433.1662322998047 Z"/>

<path id="Layer0_2_MEMBER_8_1_STROKES" stroke="#272B33" stroke-width="3" stroke-linejoin="round" stroke-linecap="round" fill="none" d="
M 211.23081970214844 477.8047706604004
L 173.73444747924805 477.8047706604004
Q 171.7761116027832 477.8047706604004 170.3361587524414 476.42241592407225 168.95380401611328 475.04006118774413 168.95380401611328 473.0241271972656
L 168.95380401611328 406.3255111694336
Q 168.95380401611328 404.36717529296874 170.3361587524414 402.92722244262694 171.7761116027832 401.5448677062988 173.73444747924805 401.5448677062988
L 211.23081970214844 401.5448677062988
Q 213.24675369262695 401.5448677062988 214.62910842895508 402.92722244262694 216.06906127929688 404.36717529296874 216.06906127929688 406.3255111694336
L 216.0114631652832 473.0241271972656
Q 216.0114631652832 475.04006118774413 214.62910842895508 476.42241592407225 213.24675369262695 477.8047706604004 211.23081970214844 477.8047706604004 Z"/>

<path id="Layer0_2_MEMBER_11_MEMBER_0_1_STROKES" stroke="#272B33" stroke-width="3" stroke-linejoin="round" stroke-linecap="round" fill="none" d="
M 195.333740234375 406.0951187133789
L 190.72589111328125 406.0951187133789"/>

<path id="Layer0_2_MEMBER_16_1_STROKES" stroke="#272B33" stroke-width="3" stroke-linejoin="round" stroke-linecap="round" fill="none" d="
M 168.95380401611328 464.8451950073242
L 168.95380401611328 413.4100791931152
Q 168.95380401611328 412.14292068481444 169.87537384033203 411.27894897460936 170.7393455505371 410.3573791503906 172.0065040588379 410.3573791503906
L 213.01636123657227 410.3573791503906
Q 214.28351974487305 410.3573791503906 215.14749145507812 411.27894897460936 216.06906127929688 412.14292068481444 216.06906127929688 413.4100791931152
L 216.06906127929688 464.8451950073242
Q 216.06906127929688 466.112353515625 215.14749145507812 466.97632522583007 214.28351974487305 467.8978950500488 213.01636123657227 467.8978950500488
L 172.0065040588379 467.8978950500488
Q 170.7393455505371 467.8978950500488 169.87537384033203 466.97632522583007 168.95380401611328 466.112353515625 168.95380401611328 464.8451950073242 Z"/>
</defs>

<g transform="matrix( 0.9599609375, 0, 0, 0.9599609375, -273.05,-42.05) ">
<use xlink:href="#Layer0_0_MEMBER_0_1_STROKES" transform="matrix( 1.0417022705078125, 0, 0, 1.0417022705078125, 284.4,43.8) "/>
</g>

<g transform="matrix( 0.9599609375, 0, 0, 0.9599609375, -273.05,-42.05) ">
<use xlink:href="#Layer0_0_MEMBER_1_FILL"/>
</g>

<g transform="matrix( 0.9599609375, 0, 0, 0.9599609375, -273.05,-42.05) ">
<use xlink:href="#Layer0_0_MEMBER_2_FILL"/>
</g>

<g transform="matrix( 0.9599609375, 0, 0, 0.9599609375, -273.05,-42.05) ">
<use xlink:href="#Layer0_0_MEMBER_3_FILL"/>

<use xlink:href="#Layer0_0_MEMBER_3_1_STROKES" transform="matrix( 1.0417022705078125, 0, 0, 1.0417022705078125, 284.4,43.8) "/>
</g>

<g transform="matrix( 0.9599609375, 0, 0, 0.9599609375, -273.05,-42.05) ">
<use xlink:href="#Layer0_0_MEMBER_4_1_STROKES" transform="matrix( 1.0417022705078125, 0, 0, 1.0417022705078125, 284.4,43.8) "/>
</g>

<g transform="matrix( 0.9599609375, 0, 0, 0.9599609375, -273.05,-42.05) ">
<use xlink:href="#Layer0_0_MEMBER_5_1_STROKES" transform="matrix( 1.0417022705078125, 0, 0, 1.0417022705078125, 284.4,43.8) "/>
</g>

<g transform="matrix( 0.9599609375, 0, 0, 0.9599609375, -273.05,-42.05) ">
<use xlink:href="#Layer0_0_MEMBER_6_1_STROKES" transform="matrix( 1.0417022705078125, 0, 0, 1.0417022705078125, 284.4,43.8) "/>
</g>

<g transform="matrix( 0.9599609375, 0, 0, 0.9599609375, -273.05,-42.05) ">
<use xlink:href="#Layer0_0_MEMBER_7_1_STROKES" transform="matrix( 1.0417022705078125, 0, 0, 1.0417022705078125, 284.4,43.8) "/>
</g>

<g transform="matrix( 0.9599609375, 0, 0, 0.9599609375, -273.05,-42.05) ">
<use xlink:href="#Layer0_0_MEMBER_8_MEMBER_0_1_STROKES" transform="matrix( 1.0417022705078125, 0, 0, 1.0417022705078125, 284.4,43.8) "/>
</g>

<g transform="matrix( 0.9599609375, 0, 0, 0.9599609375, -273.05,-42.05) ">
<use xlink:href="#Layer0_0_MEMBER_8_MEMBER_1_1_STROKES" transform="matrix( 1.0417022705078125, 0, 0, 1.0417022705078125, 284.4,43.8) "/>
</g>

<g transform="matrix( 0.9599609375, 0, 0, 0.9599609375, -273.05,-42.05) ">
<use xlink:href="#Layer0_0_MEMBER_9_1_STROKES" transform="matrix( 1.0417022705078125, 0, 0, 1.0417022705078125, 284.4,43.8) "/>
</g>

<g transform="matrix( 0.9599609375, 0, 0, 0.9599609375, -273.05,-42.05) ">
<use xlink:href="#Layer0_0_MEMBER_10_1_STROKES" transform="matrix( 1.0417022705078125, 0, 0, 1.0417022705078125, 284.4,43.8) "/>
</g>

<g transform="matrix( 0.9599609375, 0, 0, 0.9599609375, -273.05,-42.05) ">
<use xlink:href="#Layer0_0_MEMBER_11_1_STROKES" transform="matrix( 1.0417022705078125, 0, 0, 1.0417022705078125, 284.4,43.8) "/>
</g>

<g transform="matrix( 0.9599609375, 0, 0, 0.9599609375, -273.05,-42.05) ">
<use xlink:href="#Layer0_0_MEMBER_12_FILL"/>

<use xlink:href="#Layer0_0_MEMBER_12_1_STROKES" transform="matrix( 1.0417022705078125, 0, 0, 1.0417022705078125, 284.4,43.8) "/>
</g>

<g transform="matrix( 0.9599609375, 0, 0, 0.9599609375, -273.05,-42.05) ">
<use xlink:href="#Layer0_0_MEMBER_13_MEMBER_0_1_STROKES" transform="matrix( 1.0417022705078125, 0, 0, 1.0417022705078125, 284.4,43.8) "/>
</g>

<g transform="matrix( 0.9599609375, 0, 0, 0.9599609375, -273.05,-42.05) ">
<use xlink:href="#Layer0_0_MEMBER_14_FILL"/>

<use xlink:href="#Layer0_0_MEMBER_14_1_STROKES" transform="matrix( 1.0417022705078125, 0, 0, 1.0417022705078125, 284.4,43.8) "/>
</g>

<g transform="matrix( 0.9599609375, 0, 0, 0.9599609375, -273.05,-42.05) ">
<use xlink:href="#Layer0_0_MEMBER_15_FILL"/>

<use xlink:href="#Layer0_0_MEMBER_15_1_STROKES" transform="matrix( 1.0417022705078125, 0, 0, 1.0417022705078125, 284.4,43.8) "/>
</g>

<g transform="matrix( 0.9599609375, 0, 0, 0.9599609375, -273.05,-42.05) ">
<use xlink:href="#Layer0_0_MEMBER_16_MEMBER_0_1_STROKES" transform="matrix( 1.0417022705078125, 0, 0, 1.0417022705078125, 284.4,43.8) "/>
</g>

<g transform="matrix( 0.9599609375, 0, 0, 0.9599609375, -273.05,-42.05) ">
<use xlink:href="#Layer0_0_MEMBER_17_MEMBER_0_1_STROKES" transform="matrix( 1.0417022705078125, 0, 0, 1.0417022705078125, 284.4,43.8) "/>
</g>

<g transform="matrix( 0.9599609375, 0, 0, 0.9599609375, -273.05,-42.05) ">
<use xlink:href="#Layer0_0_MEMBER_18_MEMBER_0_1_STROKES" transform="matrix( 1.0417022705078125, 0, 0, 1.0417022705078125, 284.4,43.8) "/>
</g>

<g transform="matrix( 0.9599609375, 0, 0, 0.9599609375, -273.05,-42.05) ">
<use xlink:href="#Layer0_0_MEMBER_19_FILL"/>

<use xlink:href="#Layer0_0_MEMBER_19_1_STROKES" transform="matrix( 1.0417022705078125, 0, 0, 1.0417022705078125, 284.4,43.8) "/>
</g>

<g transform="matrix( 0.9599609375, 0, 0, 0.9599609375, -273.05,-42.05) ">
<use xlink:href="#Layer0_0_MEMBER_20_FILL"/>

<use xlink:href="#Layer0_0_MEMBER_20_1_STROKES" transform="matrix( 1.0417022705078125, 0, 0, 1.0417022705078125, 284.4,43.8) "/>
</g>

<g transform="matrix( 0.9599609375, 0, 0, 0.9599609375, -273.05,-42.05) ">
<use xlink:href="#Layer0_0_MEMBER_21_FILL"/>

<use xlink:href="#Layer0_0_MEMBER_21_1_STROKES" transform="matrix( 1.0417022705078125, 0, 0, 1.0417022705078125, 284.4,43.8) "/>
</g>

<g transform="matrix( 0.9599609375, 0, 0, 0.9599609375, 63.45,63.45) ">
<g transform="matrix( 1, 0, 0, 1, 0,0) ">
<use filter="url(#Filter_1)" xlink:href="#iconos_otros_ai_Layer_1__Path__2_0_Layer0_0_FILL"/>
</g>
</g>

<g transform="matrix( 0.9599609375, 0, 0, 0.9599609375, -273.05,-42.05) ">
<use xlink:href="#Layer0_0_MEMBER_23_1_STROKES" transform="matrix( 1.0417022705078125, 0, 0, 1.0417022705078125, 284.4,43.8) "/>
</g>

<g transform="matrix( 0.9599609375, 0, 0, 0.9599609375, -273.05,-42.05) ">
<use xlink:href="#Layer0_0_MEMBER_24_1_STROKES" transform="matrix( 1.0417022705078125, 0, 0, 1.0417022705078125, 284.4,43.8) "/>
</g>

<g transform="matrix( 0.9599609375, 0, 0, 0.9599609375, 553.2,97.3) ">
<use xlink:href="#Layer0_1_MEMBER_0_MEMBER_0_FILL"/>
</g>

<g transform="matrix( 0.9599609375, 0, 0, 0.9599609375, 553.2,97.3) ">
<use xlink:href="#Layer0_1_MEMBER_0_MEMBER_1_1_STROKES" transform="matrix( 1.0417022705078125, 0, 0, 1.0417022705078125, -576.25,-101.35) "/>
</g>

<g transform="matrix( 0.9599609375, 0, 0, 0.9599609375, 553.2,97.3) ">
<use xlink:href="#Layer0_1_MEMBER_1_MEMBER_0_FILL"/>
</g>

<g transform="matrix( 0.9599609375, 0, 0, 0.9599609375, 553.2,97.3) ">
<use xlink:href="#Layer0_1_MEMBER_1_MEMBER_1_1_STROKES" transform="matrix( 1.0417022705078125, 0, 0, 1.0417022705078125, -576.25,-101.35) "/>
</g>

<g transform="matrix( 0.9599609375, 0, 0, 0.9599609375, 553.2,97.3) ">
<use xlink:href="#Layer0_1_MEMBER_2_FILL"/>

<use xlink:href="#Layer0_1_MEMBER_2_1_STROKES" transform="matrix( 1.0417022705078125, 0, 0, 1.0417022705078125, -576.25,-101.35) "/>
</g>

<g transform="matrix( 0.9599609375, 0, 0, 0.9599609375, 553.2,97.3) ">
<use xlink:href="#Layer0_1_MEMBER_3_FILL"/>
</g>

<g transform="matrix( 0.9599609375, 0, 0, 0.9599609375, 553.2,97.3) ">
<use xlink:href="#Layer0_1_MEMBER_4_FILL"/>

<use xlink:href="#Layer0_1_MEMBER_4_1_STROKES" transform="matrix( 1.0417022705078125, 0, 0, 1.0417022705078125, -576.25,-101.35) "/>
</g>

<g transform="matrix( 0.9599609375, 0, 0, 0.9599609375, 553.2,97.3) ">
<use xlink:href="#Layer0_1_MEMBER_5_MEMBER_0_FILL"/>
</g>

<g transform="matrix( 0.9599609375, 0, 0, 0.9599609375, 553.2,97.3) ">
<use xlink:href="#Layer0_1_MEMBER_5_MEMBER_1_1_STROKES" transform="matrix( 1.0417022705078125, 0, 0, 1.0417022705078125, -576.25,-101.35) "/>
</g>

<g transform="matrix( 0.9599609375, 0, 0, 0.9599609375, 553.2,97.3) ">
<use xlink:href="#Layer0_1_MEMBER_6_FILL"/>

<use xlink:href="#Layer0_1_MEMBER_6_1_STROKES" transform="matrix( 1.0417022705078125, 0, 0, 1.0417022705078125, -576.25,-101.35) "/>
</g>

<g transform="matrix( 0.9599609375, 0, 0, 0.9599609375, 553.2,97.3) ">
<use xlink:href="#Layer0_1_MEMBER_7_FILL"/>

<use xlink:href="#Layer0_1_MEMBER_7_1_STROKES" transform="matrix( 1.0417022705078125, 0, 0, 1.0417022705078125, -576.25,-101.35) "/>
</g>

<g transform="matrix( 0.9599609375, 0, 0, 0.9599609375, 553.2,97.3) ">
<use xlink:href="#Layer0_1_MEMBER_8_1_STROKES" transform="matrix( 1.0417022705078125, 0, 0, 1.0417022705078125, -576.25,-101.35) "/>
</g>

<g transform="matrix( 0.9599609375, 0, 0, 0.9599609375, 553.2,97.3) ">
<use xlink:href="#Layer0_1_MEMBER_9_1_STROKES" transform="matrix( 1.0417022705078125, 0, 0, 1.0417022705078125, -576.25,-101.35) "/>
</g>

<g transform="matrix( 0.9599609375, 0, 0, 0.9599609375, 553.2,97.3) ">
<use xlink:href="#Layer0_1_MEMBER_10_FILL"/>

<use xlink:href="#Layer0_1_MEMBER_10_1_STROKES" transform="matrix( 1.0417022705078125, 0, 0, 1.0417022705078125, -576.25,-101.35) "/>
</g>

<g transform="matrix( 0.9599609375, 0, 0, 0.9599609375, 553.2,97.3) ">
<use xlink:href="#Layer0_1_MEMBER_11_FILL"/>

<use xlink:href="#Layer0_1_MEMBER_11_1_STROKES" transform="matrix( 1.0417022705078125, 0, 0, 1.0417022705078125, -576.25,-101.35) "/>
</g>

<g transform="matrix( 0.9599609375, 0, 0, 0.9599609375, 553.2,97.3) ">
<use xlink:href="#Layer0_1_MEMBER_12_MEMBER_0_FILL"/>
</g>

<g transform="matrix( 0.9599609375, 0, 0, 0.9599609375, 553.2,97.3) ">
<use xlink:href="#Layer0_1_MEMBER_13_MEMBER_0_FILL"/>
</g>

<g transform="matrix( 0.9599609375, 0, 0, 0.9599609375, 553.2,97.3) ">
<use xlink:href="#Layer0_1_MEMBER_14_MEMBER_0_FILL"/>
</g>

<g transform="matrix( 0.9599609375, 0, 0, 0.9599609375, 553.2,97.3) ">
<use xlink:href="#Layer0_1_MEMBER_15_MEMBER_0_FILL"/>
</g>

<g transform="matrix( 0.9599609375, 0, 0, 0.9599609375, 553.2,97.3) ">
<use xlink:href="#Layer0_1_MEMBER_16_MEMBER_0_FILL"/>
</g>

<g transform="matrix( 0.9599609375, 0, 0, 0.9599609375, 553.2,97.3) ">
<use xlink:href="#Layer0_1_MEMBER_17_MEMBER_0_FILL"/>

<use xlink:href="#Layer0_1_MEMBER_17_MEMBER_0_1_STROKES" transform="matrix( 1.0417022705078125, 0, 0, 1.0417022705078125, -576.25,-101.35) "/>
</g>

<g transform="matrix( 0.9599609375, 0, 0, 0.9599609375, 553.2,97.3) ">
<use xlink:href="#Layer0_1_MEMBER_18_MEMBER_0_FILL"/>

<use xlink:href="#Layer0_1_MEMBER_18_MEMBER_0_1_STROKES" transform="matrix( 1.0417022705078125, 0, 0, 1.0417022705078125, -576.25,-101.35) "/>
</g>

<g transform="matrix( 0.9599609375, 0, 0, 0.9599609375, 553.2,97.3) ">
<use xlink:href="#Layer0_1_MEMBER_19_MEMBER_0_FILL"/>

<use xlink:href="#Layer0_1_MEMBER_19_MEMBER_0_1_STROKES" transform="matrix( 1.0417022705078125, 0, 0, 1.0417022705078125, -576.25,-101.35) "/>
</g>

<g transform="matrix( 0.9599609375, 0, 0, 0.9599609375, 553.2,97.3) ">
<use xlink:href="#Layer0_1_MEMBER_20_MEMBER_0_FILL"/>

<use xlink:href="#Layer0_1_MEMBER_20_MEMBER_0_1_STROKES" transform="matrix( 1.0417022705078125, 0, 0, 1.0417022705078125, -576.25,-101.35) "/>
</g>

<g transform="matrix( 0.9599609375, 0, 0, 0.9599609375, 936.05,337.75) ">
<g transform="matrix( 1, 0, 0, 1, 0,0) ">
<use filter="url(#Filter_1)" xlink:href="#iconos_otros_ai_Layer_1__Path__2_0_0_Layer0_0_FILL"/>

<use filter="url(#Filter_1)" xlink:href="#iconos_otros_ai_Layer_1__Path__2_0_0_Layer0_0_1_STROKES"/>
</g>
</g>

<g transform="matrix( 0.9599609375, 0, 0, 0.9599609375, 553.2,97.3) ">
<use xlink:href="#Layer0_1_MEMBER_22_1_STROKES" transform="matrix( 1.0417022705078125, 0, 0, 1.0417022705078125, -576.25,-101.35) "/>
</g>

<g transform="matrix( 0.9599609375, 0, 0, 0.9599609375, 553.2,97.3) ">
<use xlink:href="#Layer0_1_MEMBER_23_1_STROKES" transform="matrix( 1.0417022705078125, 0, 0, 1.0417022705078125, -576.25,-101.35) "/>
</g>

<g transform="matrix( 1.1519622802734375, 0, 0, 1.1519622802734375, -118,12.7) ">
<use xlink:href="#Layer0_2_MEMBER_0_FILL"/>

<use xlink:href="#Layer0_2_MEMBER_0_1_STROKES" transform="matrix( 0.868072509765625, 0, 0, 0.868072509765625, 102.4,-11) "/>
</g>

<g transform="matrix( 1.1519622802734375, 0, 0, 1.1519622802734375, -118,12.7) ">
<use xlink:href="#Layer0_2_MEMBER_1_FILL"/>
</g>

<g transform="matrix( 1.1519622802734375, 0, 0, 1.1519622802734375, -118,12.7) ">
<use xlink:href="#Layer0_2_MEMBER_2_MEMBER_0_1_STROKES" transform="matrix( 0.868072509765625, 0, 0, 0.868072509765625, 102.4,-11) "/>
</g>

<g transform="matrix( 1.1519622802734375, 0, 0, 1.1519622802734375, -118,12.7) ">
<use xlink:href="#Layer0_2_MEMBER_3_MEMBER_0_1_STROKES" transform="matrix( 0.868072509765625, 0, 0, 0.868072509765625, 102.4,-11) "/>
</g>

<g transform="matrix( 1.1519622802734375, 0, 0, 1.1519622802734375, -118,12.7) ">
<use xlink:href="#Layer0_2_MEMBER_4_FILL"/>
</g>

<g transform="matrix( 1.1519622802734375, 0, 0, 1.1519622802734375, 81.3,359.75) ">
<mask id="Mask_Mask_1">
<g transform="matrix( 1, 0, 0, 1, 0,0) ">
<use xlink:href="#Mask_iconos_otros_ai_Layer_1__Clip_Group__0_2_MASK_0_FILL"/>
</g>
</mask>

<g mask="url(#Mask_Mask_1)">
<g transform="matrix( 1, 0, 0, 1, 0,0) ">
<use xlink:href="#iconos_otros_ai_Layer_1__Clip_Group__0_Layer2_0_MEMBER_0_FILL"/>
</g>

<g transform="matrix( 1, 0, 0, 1, 0,0) ">
<use xlink:href="#iconos_otros_ai_Layer_1__Clip_Group__0_Layer2_0_MEMBER_1_FILL"/>
</g>

<g transform="matrix( 1, 0, 0, 1, 0,0) ">
<use xlink:href="#iconos_otros_ai_Layer_1__Clip_Group__0_Layer2_0_MEMBER_2_FILL"/>
</g>

<g transform="matrix( 1, 0, 0, 1, 0,0) ">
<use xlink:href="#iconos_otros_ai_Layer_1__Clip_Group__0_Layer2_0_MEMBER_3_FILL"/>
</g>

<g transform="matrix( 1, 0, 0, 1, 0,0) ">
<use xlink:href="#iconos_otros_ai_Layer_1__Clip_Group__0_Layer2_0_MEMBER_4_FILL"/>
</g>

<g transform="matrix( 1, 0, 0, 1, 0,0) ">
<use xlink:href="#iconos_otros_ai_Layer_1__Clip_Group__0_Layer2_0_MEMBER_5_FILL"/>
</g>

<g transform="matrix( 1, 0, 0, 1, 0,0) ">
<use xlink:href="#iconos_otros_ai_Layer_1__Clip_Group__0_Layer2_0_MEMBER_6_MEMBER_0_1_STROKES"/>
</g>

<g transform="matrix( 1, 0, 0, 1, 0,0) ">
<use xlink:href="#iconos_otros_ai_Layer_1__Clip_Group__0_Layer2_0_MEMBER_7_MEMBER_0_1_STROKES"/>
</g>

<g transform="matrix( 1, 0, 0, 1, 0,0) ">
<use xlink:href="#iconos_otros_ai_Layer_1__Clip_Group__0_Layer2_0_MEMBER_8_FILL"/>
</g>

<g transform="matrix( 1, 0, 0, 1, 0,0) ">
<use xlink:href="#iconos_otros_ai_Layer_1__Clip_Group__0_Layer2_0_MEMBER_9_FILL"/>
</g>
</g>
</g>

<g transform="matrix( 1.1519622802734375, 0, 0, 1.1519622802734375, 82.8,360.4) ">
<g transform="matrix( 1, 0, 0, 1, 0,0) ">
<use filter="url(#Filter_1)" xlink:href="#iconos_otros_ai_Layer_1__Path__9_0_Layer0_0_FILL"/>
</g>
</g>

<g transform="matrix( 1.1519622802734375, 0, 0, 1.1519622802734375, -118,12.7) ">
<use xlink:href="#Layer0_2_MEMBER_7_1_STROKES" transform="matrix( 0.868072509765625, 0, 0, 0.868072509765625, 102.4,-11) "/>
</g>

<g transform="matrix( 1.1519622802734375, 0, 0, 1.1519622802734375, -118,12.7) ">
<use xlink:href="#Layer0_2_MEMBER_8_FILL"/>

<use xlink:href="#Layer0_2_MEMBER_8_1_STROKES" transform="matrix( 0.868072509765625, 0, 0, 0.868072509765625, 102.4,-11) "/>
</g>

<g transform="matrix( 1.1519622802734375, 0, 0, 1.1519622802734375, -118,12.7) ">
<use xlink:href="#Layer0_2_MEMBER_9_FILL"/>
</g>

<g transform="matrix( 1.1519622802734375, 0, 0, 1.1519622802734375, 168.95,410.3) ">
<g transform="matrix( 1, 0, 0, 1, 0,0) ">
<use filter="url(#Filter_1)" xlink:href="#iconos_otros_ai_Layer_1__Path__5_0_Layer0_0_FILL"/>
</g>
</g>

<g transform="matrix( 1.1519622802734375, 0, 0, 1.1519622802734375, -118,12.7) ">
<use xlink:href="#Layer0_2_MEMBER_11_MEMBER_0_1_STROKES" transform="matrix( 0.868072509765625, 0, 0, 0.868072509765625, 102.4,-11) "/>
</g>

<g transform="matrix( 1.1519622802734375, 0, 0, 1.1519622802734375, -118,12.7) ">
<use xlink:href="#Layer0_2_MEMBER_12_FILL"/>
</g>

<g transform="matrix( 1.1519622802734375, 0, 0, 1.1519622802734375, -118,12.7) ">
<use xlink:href="#Layer0_2_MEMBER_13_FILL"/>
</g>

<g transform="matrix( 1.1519622802734375, 0, 0, 1.1519622802734375, -118,12.7) ">
<use xlink:href="#Layer0_2_MEMBER_14_FILL"/>
</g>

<g transform="matrix( 1.1519622802734375, 0, 0, 1.1519622802734375, -118,12.7) ">
<use xlink:href="#Layer0_2_MEMBER_15_MEMBER_0_FILL"/>
</g>

<g transform="matrix( 1.1519622802734375, 0, 0, 1.1519622802734375, -118,12.7) ">
<use xlink:href="#Layer0_2_MEMBER_15_MEMBER_1_FILL"/>
</g>

<g transform="matrix( 1.1519622802734375, 0, 0, 1.1519622802734375, -118,12.7) ">
<use xlink:href="#Layer0_2_MEMBER_15_MEMBER_2_FILL"/>
</g>

<g transform="matrix( 1.1519622802734375, 0, 0, 1.1519622802734375, -118,12.7) ">
<use xlink:href="#Layer0_2_MEMBER_16_1_STROKES" transform="matrix( 0.868072509765625, 0, 0, 0.868072509765625, 102.4,-11) "/>
</g>
</svg>
